<?xml version="1.0" encoding="utf-8"?>
<!-- Generator: Adobe Illustrator 24.2.0, SVG Export Plug-In . SVG Version: 6.00 Build 0)  -->
<svg version="1.1" id="ae7ad495-543d-4c4b-9483-8059c5566fe6"
	 xmlns="http://www.w3.org/2000/svg" xmlns:xlink="http://www.w3.org/1999/xlink" x="0px" y="0px" viewBox="0 0 1009.5 839.6"
	 style="enable-background:new 0 0 1009.5 839.6;" xml:space="preserve">
<style type="text/css">
	.st0{display:none;opacity:0.1;fill:#38D39F;enable-background:new    ;}
	.st1{fill:#00B265;}
	.st2{fill:#DF8839;}
	.st3{opacity:0.1;enable-background:new    ;}
	.st4{fill:#38D39F;}
	.st5{fill:#CA5F00;}
	.st6{fill:#AFAFAF;}
	.st7{fill:#93A29C;}
	.st8{fill:#76837E;}
	.st9{fill:#D57B00;}
	.st10{fill:#FFC700;}
	.st11{fill:#FF9F00;}
	.st12{fill:#C43434;}
	.st13{fill:#EBEBEB;}
	.st14{fill:#E7BB8E;}
	.st15{fill:#FFE8C7;}
	.st16{fill:#F5D6B3;}
	.st17{fill:#008A3D;}
	.st18{fill:#00B266;}
	.st19{fill:#005008;}
	.st20{fill:#006B25;}
	.st21{fill:#CB6B00;}
	.st22{fill:#FF6E3C;}
	.st23{fill:#8D4000;}
	.st24{fill:#EE4317;}
	.st25{fill:#D3A300;}
	.st26{fill:#FFA03B;}
	.st27{fill:#D2752A;}
	.st28{opacity:0.34;}
	.st29{fill:#A36716;}
	.st30{fill:#825104;}
	.st31{fill:#442300;}
	.st32{fill:#FFBF94;}
	.st33{fill:#EB936F;}
	.st34{fill:#FF8145;}
	.st35{fill:#DD5710;}
	.st36{fill:#C86B4A;}
	.st37{opacity:0.44;}
	.st38{fill:#373737;}
	.st39{fill:#686868;}
	.st40{fill:#212121;}
	.st41{opacity:0.3;}
	.st42{fill:#572E00;}
	.st43{fill:#E37F6E;}
	.st44{fill:#BB594A;}
	.st45{fill:#FFDF46;}
	.st46{fill:#FFB500;}
	.st47{fill:#FFAD9A;}
	.st48{fill:#0E0E0E;}
	.st49{fill:#2C2C2C;}
	.st50{fill:#181818;}
	.st51{fill:#FF531A;}
	.st52{fill:#FF9A75;}
	.st53{fill:#FF8870;}
	.st54{fill:#FF9C4E;}
	.st55{fill:#DD7011;}
	.st56{fill:#913F00;}
	.st57{opacity:0.25;fill:#6E2727;}
	.st58{fill:#006A76;}
	.st59{fill:#C5C5C5;}
</style>
<path class="st0" d="M683.5-126.2c-109.7-4.4-214.2-45.5-314-90.5S170.9-311.5,63.8-335.3C-5-350.7-83.8-352.8-139.3-310
	c-53.4,41.3-70.7,112.5-79.9,178.6c-7,49.7-11.1,102,8,148.6c13.3,32.3,36.9,59.5,53.2,90.4c56.7,107.7,16.6,240.5-44.8,345.6
	c-28.8,49.3-62.3,96.4-84.6,148.9c-22.3,52.5-32.5,112.7-13.1,166.2c19.3,53.1,65.3,93,115.1,121c101.2,57,220.4,73.3,336.7,82.5
	c257.4,20.4,516.1,11.6,774.2,2.7c95.5-3.3,191.4-6.6,285.4-23.8c52.2-9.5,106-24.6,143.9-61.1c48.1-46.3,60-124.7,27.8-182.8
	c-54-97.4-203.4-121.6-241.3-226.1c-20.8-57.5,0.6-121.6,30.8-175c64.8-114.5,173.5-214.9,179.2-345.7
	c3.9-89.9-48.3-179.9-129.1-222.4c-84.6-44.6-202-39-264.5,34.8C893.4-151.5,780.4-122.3,683.5-126.2z"/>
<path class="st1" d="M218.2,647c7.4-29.7,9-61.2,26.9-89c14.6-22.7,32.2-34.7,58.6-39.1c13.8-2.3,38.9,5.2,50.3,1.2
	c16.8-6,22.8-41.7,38.7-55.7c32.3-28.3,72.4-28.8,106.9-9.9c11.8-38.8,54.5-56.9,93.6-53.2c21.8,2.1,24.5,16.4,39.3,23
	c6.8,3,10.2-2.1,17.6-0.5c24.3,5.1,44.7,18,55.8,41.6c3.5,7.5,1.6,31.3,6.4,36c5.2,5.2,26.9,4.5,33.9,7.3
	c23.6,9.6,40.5,30.3,47.7,54.7c9.9,33.8,6.1,11.4,39.2,29.5c24.2,13.2,25.8,39.3,43.1,52.9c14.4,11.3,28.6,9.6,34,34
	c3,13.3,0.8,30.8-1.4,43.6c-113.7,5.6-232.7,5.9-348.4-1.2c-83.9-5.2-168.9,1.7-252.3-5.3c-44.9-3.8-89.4-14.5-134-14.1
	C177.6,677.9,194.5,645.5,218.2,647z"/>
<g>
	<ellipse class="st2" cx="536.3" cy="727.2" rx="426.9" ry="42.4"/>
</g>
<g class="st3">
	<path class="st4" d="M68.9,248.5h248.7c7.3-21-21.1-32.1-37.6-26.2c-3.5-25-13.8-47.7-40.2-33.9c-7.4-13.7-9.9-27.2-24.5-37.3
		c-22.6-15.7-39.3-3.1-55.3,12.5c-10.3,10-13.1,2.8-27.8,4.8c-24.7,3.4-27.7,25.7-34.9,44.8c-10.5-0.8-17.5-2.1-25.2,6.7
		C66.4,226.5,63,240.3,68.9,248.5z"/>
	<path class="st4" d="M704.5,191.5h217.4c6.3-18.3-18.4-28-32.8-22.9c-3-21.8-12.1-41.7-35.2-29.7c-6.4-12-8.6-23.8-21.4-32.6
		c-19.8-13.7-34.3-2.7-48.3,10.9c-9,8.8-11.4,2.4-24.3,4.2c-21.6,3-24.2,22.4-30.5,39.2c-9.2-0.7-15.3-1.8-22,5.9
		C702.2,172.3,699.3,184.4,704.5,191.5z"/>
</g>
<ellipse class="st5" cx="685.5" cy="711.9" rx="83.7" ry="12.1"/>
<path class="st6" d="M713.4,210.6c0.2,0.1,0.4,0.2,0.6,0.3C713.8,210.8,713.6,210.7,713.4,210.6z"/>
<path class="st6" d="M710,208c0.2,0.2,0.5,0.5,0.8,0.7C710.5,208.5,710.3,208.3,710,208z"/>
<path class="st6" d="M708,205.7c0.2,0.3,0.4,0.6,0.6,0.8C708.4,206.2,708.2,205.9,708,205.7z"/>
<path class="st6" d="M707.4,204.7c0.2,0.3,0.3,0.6,0.5,0.8C707.8,205.3,707.6,205,707.4,204.7z"/>
<g>
	<g>
		<g>
			<path class="st7" d="M765.5,509.9l-1,9l-6.2,55l-0.3,2.7l-0.4,3.2c-13.3,3.7-23.1,2.4-28.8,0.3c-4.1-1.4-6-1.9-6-1.9
				c-0.3-1.6-0.6-5.3-0.8-8c-0.1-1.1-0.2-2.3-0.3-3.6c-1.1-15.8-1-42.5-0.9-57.5c0.1-6.5,0.1-10.8,0.1-11.2
				C733.8,504.1,748.8,508.8,765.5,509.9z"/>
			<path class="st8" d="M765.5,509.9l-1,9c-7.8,1.8-18.1,0-23.9-1.3c-5.3-1.2-14.1-4.1-19.8-8.4c0.1-6.5,0.1-10.8,0.1-11.2
				C733.8,504.1,748.8,508.8,765.5,509.9z"/>
			<path class="st8" d="M757.9,576.6l-0.4,3.2c-13.3,3.7-23.1,2.4-28.8,0.3c-4.1-1.4-6-1.9-6-1.9c-0.3-1.6-0.6-5.3-0.8-8
				c-0.1-1.1-0.2-2.3-0.3-3.6c3.1,2.8,7.1,5.2,10.5,6.8c5.9,2.6,11.8,3.4,18.2,3.7c1.6,0.1,3.2,0.1,4.8,0
				C756,577.1,756.9,576.8,757.9,576.6z"/>
		</g>
		<g>
			<path class="st7" d="M635.1,514.2l-0.5-7.4l-3.2-43.9l-3.5-48.3c-1.3,0.5-45.4,18-10.8,104.6c0.6,1.5,1.3,3.1,1.9,4.7l16.8-1.7
				L635.1,514.2z M648,468.4c0-4.1,2.5-7.9,6.4-9.4l12.2-4.8c-3.7-5.5-7.8-10.1-11.7-13.9c-7.2-6.8-13.6-10.7-15-11.5L641,452
				l0.8,16.7l2.6,52.5l14-1.5l-10.2-49.3C648.1,469.7,648,469,648,468.4z"/>
			<path class="st8" d="M648.2,470.4l10.2,49.3l-14,1.5l-2.6-52.5L641,452c4.4-4.3,9.2-8.3,13.9-11.7c3.9,3.8,8.1,8.4,11.7,13.9
				l-12.2,4.8c-3.9,1.5-6.4,5.3-6.4,9.4C648,469,648.1,469.7,648.2,470.4z"/>
			<path class="st8" d="M635.6,522.1l-16.8,1.7c-0.7-1.6-1.3-3.2-1.9-4.7c2.4-0.9,4.8-2,7.1-2.5c3.5-0.8,7-1.5,10.5-2.3
				c0.2,0,0.4-0.1,0.6-0.1L635.6,522.1z"/>
		</g>
	</g>
	<g>
		<g>
			<path class="st9" d="M641.1,617.1c-20.6,10.4-33.7,10.1-39.2,9.2c-1.8-0.3-3.3-1.5-3.9-3.2c0,0-3.5,7.8,6.2,9.1
				c0,0,6.9,0.2,15.9-1.8c5.7-1.2,12.2-3.3,18.3-6.8c1.5-0.9,3-1.8,4.4-2.9l-0.3-4.3C642,616.6,641.5,616.8,641.1,617.1z
				 M662.8,610.6c-0.5,1.1-1.6,1.9-2.8,2.1c-3.3,0.5-7.5,1.4-11,2.1l0.3,5.9c0,0,3.7,0.3,8.2,0.3c1.3,0,2.7,0,4-0.1
				c2.1-0.1,3.7-1.8,3.6-3.9C665.1,615.1,664.6,612.8,662.8,610.6z"/>
			<path class="st10" d="M663.1,608l-4.5-16.2c-0.4-1.8-0.7-3.7-0.8-5.5c-0.2-1.6-0.2-3.3-0.2-4.9l0.8-61.6l-14,1.5l3.6,72.2
				l1.1,21.4c3.4-0.8,7.6-1.6,11-2.1c1.3-0.2,2.3-1,2.8-2.1C663.2,609.8,663.3,608.9,663.1,608z M641.2,598.9l-5.6-76.8l-16.8,1.7
				l6.9,68.3c0.8,7.4-3.3,14.5-10,17.7l-15.2,7.1c-2.3,1.1-3.4,3.8-2.6,6.2c0.6,1.7,2.1,2.9,3.9,3.2c4.7,0.8,14.9,1.1,30.6-5.3
				c2.7-1.1,5.6-2.4,8.7-3.9c0.5-0.2,1-0.5,1.5-0.6L641.2,598.9z"/>
			<path class="st11" d="M641.2,598.9l1.3,17.6c-0.5,0.2-1,0.4-1.5,0.6c-3.1,1.5-5.9,2.8-8.7,3.9c-0.3,0.1-0.6,0.2-0.9,0.2
				c-4.2,1.2-8.7,2.2-7.2-3.4c1.2-4.7,4.6-7.7,8.3-11.1C635.4,604.1,638.3,601.5,641.2,598.9z"/>
			<path class="st11" d="M662.8,610.6c-0.5,1.1-1.6,1.9-2.8,2.1c-3.3,0.5-7.5,1.4-11,2.1l-1.1-21.4c2.2-1.5,4.5-2.9,6.5-4.4
				c0.4-0.4,1.9-1.6,3.3-2.7c0.1,1.9,0.4,3.7,0.8,5.5l4.5,16.2C663.3,608.9,663.2,609.8,662.8,610.6z"/>
		</g>
		<g>
			<path class="st10" d="M743.1,681.8c0,0.3,0,0.6,0,0.9c3.3,4.5,5.3,8.8,6.5,11.8c0.7,1.6,0.8,3.3,0.4,4.9c-0.5,2.2-2,4.2-4.2,5.2
				c-8.3,3.8-23,1.2-23,1.2c-2.7-0.5-4.5-2.2-5.6-4.2l-0.1-0.2l-0.9-2l0,0c-0.7-2-0.9-4.1-0.9-5.5c0-1.2-0.3-2.3-0.7-3.4
				c-3.1-9,1.7-30.9,1.7-30.9v-83l12.6,3.1c5.8,2.1,15.4,3.8,28.6,0.1l5.5-0.9c0,0-5.1,20-10.2,43.1
				C748.1,644,743.3,668.8,743.1,681.8z"/>
			<path class="st9" d="M750,699.5c3.7,4.9-1.1,8.4-1.1,8.4c-12.1,7.8-29.9,1.8-29.9,1.8c-4.8-2.3-2.8-10.2-2.8-10.2l0,0
				c0.2,0.7,0.5,1.4,0.9,2l0.1,0.2c1.1,2,2.9,3.6,5.6,4.2c0,0,14.7,2.6,23-1.2C747.9,703.7,749.4,701.7,750,699.5L750,699.5z"/>
			<path class="st11" d="M755.2,611.6c-4.8,22-11.9,57.2-12.1,70.2c-0.1-0.1-0.3-0.2-0.4-0.3c-1.6-1.1-2.8-2.6-3.9-4.2
				c-2.4-3.5-0.8-6.9-0.4-10.9C739,660.3,753.8,614.3,755.2,611.6z"/>
			<path class="st9" d="M743,683.9c-0.3,0-0.7-0.2-0.9-0.5c-1.7-2.4-3.6-4.6-5.6-6.6c-0.4-0.4-0.4-1.1,0-1.6c0.4-0.4,1.1-0.4,1.6,0
				c2.1,2.1,4.1,4.4,5.8,6.9c0.4,0.5,0.2,1.2-0.3,1.5C743.5,683.8,743.3,683.9,743,683.9z"/>
		</g>
	</g>
</g>
<path class="st12" d="M755,219.4c-2-0.6-3.3-0.8-3.3-0.8l0.2,1.4c0,0,1.3,20.1-21.9,23.1c-0.5,0.1-0.9,0.1-1.4,0.1
	c-3.5,0-15.8-1.3-17.2-18.2c-2.3,0.2-4.6,0.5-6.8,0.9c-3.3,14.9-6.3,23.8-8.9,29.2c1,0.2,32.2,7.2,57.5-1.3
	C752.4,247.8,752.4,237.4,755,219.4z M762.3,221.7c0,0,0.5,17.5-1,29.4c0,0,2.2,4.2,4.1,9.3c1.4,3.6,2.6,7.6,3,11
	c0.2-0.4,0.5-0.9,0.7-1.3c1-1.5,2.1-3,3.4-4.4c2.4-2.7,5.2-5.1,7.9-7.1c4.3-3.1,7.7-5.2,13-5.9c1.9-0.3,3.8-0.4,5.8-0.5V252
	C795.7,235.7,775.2,226.2,762.3,221.7z M639.5,274.1c0,0,2.4,0.4,5.9,1.5c5.3,1.7,13.2,5.1,18.7,11.6c1.6,1.9,3,4,4.1,6.5
	c0,0,0.9,2.2,2.4,4.4c1.2,1.7,2.8,3.5,4.7,4.1l0.8,0c1-17.6,5.2-32.3,8.1-40.8c1.7-4.9,3-7.7,3-7.7l0.2,0
	c2.4-10.5,9.5-26.4,9.5-26.4C652.9,238.1,639.5,274.1,639.5,274.1z M795.3,265.6c-1.2,0.4-2.5-0.1-3.4-1c-1.2-1.1-1.9-2.3-3.7-2.7
	c-2.2-0.5-3.9,1.3-5.6,2.5c-1.8,1.3-3.4,2.9-4.9,4.6c-0.7,0.7-1.3,1.5-2,2.3c-1.3,1.5-2.3,3.3-3,5.2c-0.3,0.9-0.4,2.2-0.9,3l0,0.1
	c0.2,0.1,0.4,0.2,0.7,0.4c1.8,1.3,2.7,3.8,3.2,5.8l0.3,0.1c0.4-1.3,0.9-2.5,1.6-3.6c0.9-1.3,2.1-2,3.5-2v0c2-2.4,3.5-5.2,5.7-7.6
	c0.4-0.4,0.7-0.8,1.1-1.2c2.4-2.3,4.8-4.2,7.6-5.7L795.3,265.6z M805.8,272.3c-1.1-3-6-2.4-8.3-1.6c-1.6,0.6-3.2,1.4-4.7,2.4
	c-3.3,2.2-6.1,5.1-8.1,8.6l-0.1,0.1c0.8,0.9,1.2,2.1,1.5,3.3c0.3,1.4,0.4,2.7,0.4,4.1c0.1,0,0.1,0,0.2,0c1.7-2.9,4.1-6.2,6.7-6.8
	l-0.1-0.3c1.2-3,5.8-8.2,11.1-9.2c0.5-0.1,0.9-0.2,1.4-0.2L805.8,272.3z"/>
<path class="st13" d="M684.4,261.5c-2.9,8.5-7.1,23.2-8.1,40.8l-0.8,0c-1.9-0.6-3.5-2.4-4.7-4.1c-1.5-2.2-2.4-4.4-2.4-4.4
	c-1.1-2.4-2.5-4.6-4.1-6.5c0.3-0.5,0.6-0.9,1.1-1.4c4-4.4,5.5-7.5,5.8-13.7c0.1-1.7-0.5-4.4,0.6-5.8c1.5-1.9,2.4-0.5,4.4-0.2
	C680.7,266.8,682.5,264.2,684.4,261.5z"/>
<path class="st13" d="M768.9,263c-0.8-0.6-2.1-1.6-3.4-2.5c1.4,3.6,2.6,7.6,3,11c0.2-0.4,0.5-0.9,0.7-1.3c1-1.5,2.1-3,3.4-4.4
	C771.4,264.8,770.2,263.9,768.9,263z M804.5,272.8c-0.2,0-0.4,0-0.6,0c-3.6,0.1-7.3,0.4-11,0.3c-3.3,2.2-6.1,5.1-8.1,8.6l-0.1,0.1
	c0.8,0.9,1.2,2.1,1.5,3.3c0.3,1.4,0.4,2.7,0.4,4.1c0.1,0,0.1,0,0.2,0c1.7-2.9,4.1-6.2,6.7-6.8l-0.1-0.3
	C794.5,279,799.1,273.8,804.5,272.8z M779.1,269.9c-0.5-0.3-1-0.6-1.5-0.9c-0.7,0.7-1.3,1.5-2,2.3c-1.3,1.5-2.3,3.3-3,5.2
	c-0.3,0.9-0.4,2.2-0.9,3l0,0.1c0.2,0.1,0.4,0.2,0.7,0.4c1.8,1.3,2.7,3.8,3.2,5.8l0.3,0.1c0.4-1.3,0.9-2.5,1.6-3.6
	c0.9-1.3,2.1-2,3.5-2v0c2-2.4,3.5-5.2,5.7-7.6C784,272.1,781.5,271.3,779.1,269.9z"/>
<path class="st13" d="M707.5,243.6c4,7.8,18.4,13.5,26.5,10.2c-5.1,1-13.2-2.2-17.1-5.3c-3.7-2.8-7-6.4-10-9.8
	C706.7,240.2,706.9,242.5,707.5,243.6z"/>
<g>
	<path class="st14" d="M753.2,253.8c-0.8-6-0.8-16.3,1.8-34.3c1.8,0.5,4.4,1.3,7.3,2.3c0,0,0.5,17.5-1,29.4c-0.7,6-1.9,10.6-4,10.8
		C757.4,261.9,754.4,262.1,753.2,253.8z"/>
	<path class="st15" d="M749.5,268.7c-6,1.8-11.4,3-16.3,3.7c-23.7,3.4-34.2-4.6-34.2-4.6s-8.3,28.3,18.9,29.5l0.3-0.2l-3.7-6.2
		c-1.5-2.6-0.6-5.8,2-7.4c0.8-0.5,1.8-0.7,2.7-0.7c1.9,0,3.7,1,4.7,2.7l5.4,9.2c0.1,0,0.3-0.1,0.4-0.2l0-11.4c0-2.6,1.9-4.8,4.3-5.3
		c0.4-0.1,0.7-0.1,1.1-0.1c1.5,0,2.8,0.6,3.8,1.6c1,1,1.6,2.3,1.6,3.8l0,8c1.1-0.3,2.3-0.6,3.4-0.9
		C751.2,282.3,749.5,268.7,749.5,268.7z"/>
	<path class="st14" d="M697,227.4c2.4-0.6,4.9-1.1,7.5-1.5c-3.3,14.9-6.3,23.8-8.9,29.2c0,0,0,0,0,0c-4.7,9.9-7.7,7.6-7.7,7.6
		c-1.6-0.8-1.5-4.3-0.4-8.8C689.9,243.3,697,227.4,697,227.4z"/>
	<path class="st16" d="M783.8,402.4c-2.1,49.4-18.3,107.4-18.3,107.4c-16.7-1-31.7-5.7-44.7-11.9c-32.9-15.7-52.5-41.2-52.5-41.2
		c-0.6-0.9-1.1-1.8-1.7-2.7c-10.4-15.6-24.5-24.1-26.8-25.4l-1.1-23c13.7-9.6,22.5-22.5,28.2-35.1c6-13.3,8.4-26.2,9.4-34.8
		c0.4-2.9,0.5-5.3,0.6-7c0.1-1.7,0-3.5-0.2-5.2c-0.8-7.4-0.9-14.6-0.5-21.4c1.5-27.7,11.1-48.5,11.1-48.5l0.2,0
		c-1,4.5-1.2,8,0.5,8.8c0,0,3,2.4,7.7-7.5c0,0,0,0,0,0c1,0.2,32.2,7.2,57.5-1.3c1.2,8,4,8.2,4.1,8.2c2-0.2,3.3-4.8,4-10.8
		c0,0,6.2,12,7.2,20.3c-1.2,2.6-1,5.1-2,7.7l0.1,0.2c-1.5,1-1.4,3.6-1.4,5.2c0,0.9,0,1.8,0.1,2.7l0.1,1.4c-0.5-0.5-2.1-1.3-2.1-1.3
		c-1.5-0.7-3.2-1.1-4.9-1.1c-2.7,0-5.3,1-7.2,2.6c-2.5,0.4-5,0.9-7.4,1.5c7.3-8.1,5.6-21.7,5.6-21.7c-6,1.8-11.4,3-16.3,3.6
		c-23.7,3.4-34.2-4.6-34.2-4.6s-8.3,28.3,18.9,29.5l0.3-0.2l1.2,2c-14.4,7.2-24.3,17-21.9,27.3c0.7,2.8,2.1,5.2,4.3,7.2
		c1.2,1.1,2.6,2.1,4.2,2.9l18.4,21l1,0.4c-0.1,0.3-0.1,0.5-0.1,0.8c0,1.1,0.5,2.1,1.4,2.7c0,0-4.1,10.1,22.7,13.9l0,0.1
		c0,0,0,12.4,33.8,1.4l0,0.2C784.1,384.9,784.1,393.5,783.8,402.4z"/>
	<path class="st14" d="M664.2,394.2c2.5-0.6,5.1,0.6,7.2,1.9c2.2,1.4,4,3.2,5.8,5c3.4,3.8,6.2,8,8.9,12.4
		c5.3,8.7,8.9,18.3,13.4,27.1c4.5,8.9,10.3,17.1,17.3,24.3c3.5,3.5,7.3,6.8,11.5,9.6c4.1,2.8,8.6,5.2,13.4,6.7
		c-9.9-2.3-18.7-8.1-26.1-15.1c-7.4-7-13.3-15.5-18.1-24.5c-2.3-4.6-4.3-9.2-6.3-13.8c-2-4.6-4.3-9.1-6.6-13.5
		c-2.4-4.4-5-8.7-8.2-12.5c-1.6-1.9-3.3-3.8-5.3-5.2c-1-0.8-2.1-1.4-3.2-1.9C666.7,394.3,665.4,394,664.2,394.2z"/>
	<path class="st14" d="M685.5,399.9c2.5,2.6,5.1,5.1,7.9,7.4c2.7,2.4,5.6,4.6,8.5,6.6c5.9,4,12.2,7.6,18.9,10
		c6.7,2.5,13.7,4,20.9,4.3c3.6,0.2,7.2,0,10.7-0.5c3.6-0.3,7.1-1.3,10.6-2.1c-6.7,2.7-14,4.3-21.4,4.3c-7.4,0.1-14.7-1.4-21.6-3.9
		c-6.9-2.6-13.3-6.3-19.1-10.7C695.1,410.9,689.8,405.8,685.5,399.9z"/>
	<path class="st14" d="M783.8,402.4c-7.5,2.2-16.8,2-23.8-0.3c-8.1-2.6-16-5.8-23.6-9.7c-6.1-3.2-9.7-6.9-14.7-11.4
		c-1.2-1.1-8.6-6.2-5.3-8.3c1.4-0.9,4.7,1.9,6.4,2c-2.3-2.8-3.8-6.1-6.4-8.8c-5.4-5.5-12.6-11.1-16.3-18c-1.6-3-3.1-9.9-0.8-12.9
		c0.7-0.9,1.7-1.3,2.7-1.5c1.2,1.1,2.6,2.1,4.2,2.9l18.4,21l1,0.4c-0.1,0.3-0.1,0.5-0.1,0.8c0,1.1,0.5,2.1,1.4,2.7
		c0,0-4.1,10.1,22.7,13.9l0,0.1c0,0,0,12.4,33.8,1.4l0,0.2C784.1,384.9,784.1,393.5,783.8,402.4z"/>
	<path class="st14" d="M722,410.7c-13.9-3.5-23.7-11.4-32.9-22c-5.7-6.7-12.8-16.5-22.2-18.1c6-13.3,8.4-26.2,9.4-34.8
		c5.8,6.1,10.3,18.3,11.7,25.2c2.3,10.8,3.4,22.3,10.9,31.1C704.8,398.9,714,406.9,722,410.7z"/>
</g>
<g>
	<path class="st17" d="M834.1,271.4c0.2,0.1,0.3,0.2,0.5,0.3c3.3,2.3,2.1,6.2,4.6,8.8c3.1,3.4,5.8,4.6,5.4,9.8
		c-0.1,1.9-0.8,3.8-0.4,5.7c0.5,2.3,1.9,4.4,1.8,6.8c-0.1,4.3-1.8,9.3-5.4,11.7c-1.1-1.7-2.4-3.2-3.4-5.1c-1.7-3.2-0.8-7.6-1.5-11.2
		c-0.9-4.7-3.1-9.7-7.4-12.3c-3.8-2.2-7.9-2.9-11.2-5.9c-3.5-3.1-5.6-7.4-10.7-7.4c-0.2,0-0.3,0-0.5,0l0-0.3c-1.1-3-6-2.4-8.3-1.6
		c-5.4,2-10,5.9-12.8,10.9l-0.1,0.1c-0.6-0.7-1.3-1.2-2.3-1.4c-0.5-0.1-1-0.2-1.5-0.1v0c2.3-2.8,4-6.1,6.8-8.8
		c2.4-2.3,4.8-4.2,7.6-5.7c1.6-0.8,3.3-1.6,5.2-2.1c4.6-1.3,9.3-2,13,1.6c2.8,2.7,3.5,5.8,8,5.9
		C825.6,271.1,830.3,269.1,834.1,271.4z"/>
	<path class="st18" d="M839.3,329.6c0.8,3.7,4.5,6.7,4,10.9c-0.3,3-3.8,6.4-7,5.1c-1.1-0.4-1.8-1.3-2.4-2.3c-1.8-3.2-1.8-8.2-6.6-8
		c-2,0.1-3.4,1.7-5.4,1.5c-2.1-0.2-3.7-2.1-4.8-3.9c-2-3.3-2.3-6.9-1.8-10.5c0.2-1.9,0.6-3.7,1.2-5.5c1.2-4.4,2.3-8-1.6-11.3
		c-2.7-2.2-2.6-4-1.6-7.3c2-6.6,3-13.3-2.6-19.5c-2-2.2-3.9-2.6-5.7-2.1c-3.3,0.9-6.2,4.8-8.4,6.3c-1-0.7-2-0.8-3-0.6l-0.1-0.3
		c1.3-3.3,6.6-9.1,12.5-9.4c0.2,0,0.3,0,0.5,0c5.2,0,7.3,4.3,10.7,7.4c3.3,3,7.5,3.7,11.2,5.9c4.3,2.5,6.5,7.5,7.4,12.3
		c0.7,3.6-0.1,8,1.5,11.2c1,1.9,2.3,3.4,3.4,5.1c1,1.6,1.8,3.3,1.6,5.6C842,323.6,838.4,325.8,839.3,329.6z"/>
	<path class="st18" d="M832.3,255.7c2.9,1.3,5.7,6.1,5.5,9.3c-0.2,2.6-2,4.7-3.7,6.4c-3.8-2.2-8.5-0.2-12.6-0.3
		c-4.5,0-5.3-3.2-8-5.9c-3.7-3.6-8.4-3-13-1.6c-1.9,0.6-3.6,1.3-5.2,2.1l0-0.1c-1.2,0.4-2.5-0.1-3.5-1c-1.2-1.1-1.9-2.3-3.7-2.7
		c-2.2-0.5-3.9,1.3-5.6,2.5c-2.6,1.8-4.8,4.5-6.9,6.9c-1.3,1.5-2.3,3.3-3,5.2c-0.3,1-0.4,2.2-0.9,3l0,0.1c-1.4-0.7-3-1-4.5-0.4
		c-0.2,0.1-0.3,0.1-0.5,0.2l-0.1-0.2c1-2.6,0.8-5.1,2-7.7c0.2-0.4,0.4-0.9,0.7-1.3c2.9-4.4,7.1-8.5,11.3-11.5c4.3-3,7.7-5.2,13-5.9
		c1.9-0.3,3.8-0.4,5.8-0.5c0.6,0,1.2-0.1,1.8-0.1c1.5-4.1,5.2-6.6,9.4-7.2c2.5-0.4,5.7-0.6,7.9,0.9c2.2,1.5,2,3.8,3.2,5.9
		C824,255.9,828.6,254.1,832.3,255.7z"/>
	<path class="st17" d="M814.7,305.6c4,3.2,2.9,6.9,1.6,11.3c-0.5,1.8-0.9,3.6-1.2,5.5l-0.2,0c-0.7-1.4-2.4-2.6-3.8-3.1c0,0,0,0,0,0
		c-1.6-0.6-4.2-0.1-5.7-1.2c-1.9-1.5-1.6-3.8-0.7-5.8c0.4-1.2,1-2.3,1.4-3.2c1.3-3.1,0-4.1-1.5-6.6c-0.4-0.6-0.6-1.3-0.8-1.9
		c-0.6-2-0.2-4,0.7-6c1.6-3.5,2.2-6.4,1.9-10.3c-0.2-1.8-0.4-3.4-0.9-5.1c-0.2-0.6-0.6-1.5-0.6-1.9l-0.1-0.4
		c1.8-0.5,3.7-0.1,5.7,2.1c5.6,6.2,4.6,12.9,2.6,19.5C812.1,301.6,812,303.4,814.7,305.6z"/>
	<path class="st19" d="M811.2,319.2l-0.1,0.2c0,0-1.1,2.5-3.1,6.1c-1.9-1.9-5.5,0.3-5.5,0.3c-2.9,1.9-5.6-0.1-5.9-0.3v0l1.7-10.7v0
		c0.8-1,1.4-2.1,1.9-3.1c0,0,1.6,2.2,4.5,0.5h0c-0.8,2.1-1.2,4.4,0.7,5.8C806.9,319.2,809.5,318.7,811.2,319.2
		C811.2,319.2,811.2,319.2,811.2,319.2z"/>
	<path class="st20" d="M806.4,284.1c0.3,3.9-0.3,6.7-1.9,10.3c-0.9,2.1-1.3,4.1-0.7,6l-2.8,0.2c-0.9-2.8-2.7-5.2-5.3-7.1
		c1.6-2.9,4.1-8.2,0.6-10.6c2.1-1.5,5.1-5.4,8.4-6.3l0.1,0.4c0,0.4,0.4,1.3,0.6,1.9C806.1,280.6,806.3,282.3,806.4,284.1z"/>
	<path class="st18" d="M802.4,325.9c0,0,3.7-2.2,5.5-0.3c-3,5.3-8,13-14.5,19.3l0,0l3.1-19.2C796.8,325.8,799.5,327.8,802.4,325.9z"
		/>
	<path class="st20" d="M804.6,302.3c1.5,2.5,2.7,3.5,1.5,6.6c-0.4,0.9-1,2-1.4,3.2h0c-2.9,1.7-4.5-0.5-4.5-0.5
		c1.6-3.2,2.1-6.5,1.3-9.8c-0.1-0.4-0.2-0.8-0.4-1.2l2.8-0.2C804,301.1,804.3,301.7,804.6,302.3z"/>
	<path class="st21" d="M801.4,301.8c0.8,3.4,0.3,6.7-1.3,9.8c-0.5,1.1-1.2,2.1-1.9,3.1v0c-7.3,10.1-24.8,18.6-43.2,23
		c-1.3,0.3-2.6,0.6-3.9,0.8c0,0,0,0,0,0c-4.6,0.9-9.1,1.6-13.5,2c0,0,0,0,0,0c-3,0.3-5.9,0.4-8.7,0.4c-9.6,0-17.4-1.6-22.9-4.5l0,0
		h0c-4.6-2.5-7.5-5.9-8.5-10.2c-2.4-10.3,7.4-20.1,21.9-27.3l3.3,5.7c-0.7,0.4-1.5,0.7-2.1,1.1c-0.4-0.1-0.8-0.1-1.3-0.1
		c-3.8,0-7,2.5-8,6.1c-5.5,4.4-8.3,9-7.3,13c0,0.2,0.1,0.3,0.1,0.5c0,0,0,0,0,0c1.2,3.9,5.8,6.6,12.6,8c0.6,0.1,1.3,0.2,2,0.4
		c3.6,0.6,7.8,0.8,12.3,0.7h0c0.1,0,0.2,0,0.3,0c6.8-0.2,14.3-1.2,22.2-3c0.7-0.2,1.5-0.4,2.2-0.5c0.3-0.1,0.6-0.2,0.9-0.2
		c9-2.4,17.1-5.6,23.5-9.2c0.7-0.4,1.3-0.8,1.9-1.1c9-5.5,14.1-11.6,12.9-16.9c-0.4-1.6-1.3-3-2.7-4.2c1.2-1.8,2.3-3.5,3.4-5.3
		c0-0.1,0.1-0.2,0.2-0.3c2.5,1.9,4.3,4.3,5.3,7.1C801.2,301,801.3,301.4,801.4,301.8z"/>
	<path class="st2" d="M798.2,314.9l-1.7,10.7v0l-3.1,19.2l0,0c-5.6,5.3-12.2,9.4-19.7,10.1l-2.5-1l-16-6.6c-1.5-0.6-3.2-0.2-4.2,1.1
		c-0.6,0.7-0.8,1.5-0.8,2.3c0,1.1,0.5,2.2,1.4,2.9l9.7,7.5c0,0-3.3,1.6-9.5,1c-2.8-0.3-6.3-1-10.3-2.5l-11.9-3.9
		c-1.6-0.5-3.2,0.2-4,1.6c-0.1,0.2-0.2,0.5-0.3,0.7l-1-0.4l-18.4-21h0l0,0c5.4,2.9,13.3,4.5,22.9,4.5c2.8,0,5.7-0.1,8.7-0.4
		c0,0,0,0,0,0c4.4-0.4,8.9-1,13.5-2c0,0,0,0,0,0c1.3-0.2,2.6-0.5,3.9-0.8c8.3-1.9,16.4-4.7,23.5-8.1
		C787.1,325.5,794.2,320.4,798.2,314.9z"/>
	<path class="st22" d="M795.8,293.5c-0.1,0.1-0.1,0.2-0.2,0.3c-1.1,1.8-2.2,3.6-3.4,5.3c-2.3,3.4-4.6,6.7-6.1,10.5
		c-0.2,0.6-0.5,1.3-0.8,1.9c-1.3,2.8-2.8,5.7-3.3,8.6l0,0.1c-0.6,0.4-1.3,0.8-2,1.1c-0.6-2.5-1.9-4.7-3.8-6.4
		c0.1-0.6,0.2-1.3,0.3-1.9c0.5-2.3,1.3-4.5,2.2-6.7c0.4-0.9,0.8-1.9,1.2-2.8c1.2-2.8,2.3-5.6,3.6-8.4c0.3-0.8,0.7-1.5,1.1-2.3
		c0.4-0.9,1.1-2.3,2-3.8c1.7-2.9,4.1-6.2,6.7-6.8c1-0.2,2-0.1,3,0.6C799.9,285.3,797.4,290.6,795.8,293.5z"/>
	<path class="st23" d="M794.9,303.4c1.2,5.3-3.9,11.4-12.9,16.9l0-0.1c0.6-3.5,2.8-7.1,4.1-10.5c1.5-3.8,3.8-7.1,6.1-10.5
		C793.6,300.4,794.6,301.8,794.9,303.4z"/>
	<path class="st24" d="M786.7,289.2c-0.9,1.5-1.6,2.9-2,3.8c-0.4,0.7-0.8,1.5-1.1,2.3c-1.3,2.8-2.5,5.6-3.6,8.4
		c-0.4,0.9-0.8,1.9-1.2,2.8c-0.9,2.2-1.7,4.4-2.2,6.7c-0.1,0.5-0.2,1.3-0.3,1.9c-1.5-1.3-3.2-2.3-5.2-2.8c0-5.4,0.3-10.7,1.7-15.9
		c0.2-0.7,0.4-1.4,0.6-2.1c0-0.1,0-0.2,0.1-0.2c0.6-2.2,1.1-4.4,1.8-6.5c0,0,0,0,0,0c0.1-0.5,0.3-1,0.5-1.5c0.4-1.3,0.9-2.5,1.6-3.6
		c0.9-1.3,2.1-2,3.5-2c0.5,0,0.9,0,1.5,0.1c0.9,0.2,1.7,0.7,2.3,1.4c0.8,0.9,1.2,2.1,1.5,3.3c0.3,1.4,0.4,2.7,0.4,4.1
		C786.6,289.2,786.6,289.2,786.7,289.2z"/>
	<path class="st24" d="M780.1,321.4c-1.1,0.6-2.3,1.3-3.6,1.9c-5.7,2.8-12.5,5.4-19.9,7.3c-0.3-0.5-0.6-1.1-0.8-1.6
		c0-0.1,0-0.2,0-0.4c0-1.6-0.3-3.2-0.8-4.6c0.1-3.2,1.4-6.1,3.5-8.3c0.9-1,2.1-1.9,3.3-2.5c1.8-0.9,3.8-1.5,5.9-1.5
		c0.3,0,0.6,0,0.8,0c0.9,0.1,1.7,0.2,2.6,0.5c2,0.5,3.7,1.5,5.2,2.8C778.2,316.7,779.5,318.9,780.1,321.4z"/>
	<path class="st22" d="M775.8,285.8c-0.2,0.5-0.3,1-0.5,1.5c0,0,0,0,0,0c-0.6,2.1-1.2,4.3-1.8,6.5c0,0.1,0,0.2-0.1,0.2
		c-0.2,0.7-0.4,1.4-0.6,2.1c-1.4,5.2-1.7,10.6-1.7,15.9c-0.8-0.2-1.7-0.4-2.6-0.5l0-0.5c-0.1-1.7-0.8-3.6-1.2-5.3
		c-0.1-0.5-0.2-1.1-0.3-1.6c-0.4-2.6-0.6-5.2-0.9-7.9c-0.3-2.6-0.6-5.2-0.7-7.8c0-0.5-0.1-0.9-0.1-1.4c0-0.3,0-0.7,0-1
		c0-0.6,0-1.1,0-1.7c0-1.6-0.2-4.2,1.4-5.2c0.1-0.1,0.3-0.2,0.5-0.2c1.5-0.5,3.1-0.3,4.5,0.4c0.2,0.1,0.4,0.2,0.7,0.4
		c1.8,1.3,2.7,3.8,3.2,5.8L775.8,285.8z"/>
	<path class="st25" d="M768.6,311.2l0,0.5c-0.3,0-0.6,0-0.8,0c-3.6,0-6.9,1.5-9.2,4c0.2-0.9,0.4-1.8,0.4-2.7c0-1.6-0.4-3.2-1-4.5
		c0.2,0,0.4,0,0.6,0c3.5,0,6.6-1.6,8.6-4.1c0.1,0.5,0.2,1,0.3,1.6C767.8,307.6,768.5,309.6,768.6,311.2z"/>
	<path class="st26" d="M767.1,304.3c-2,2.5-5.1,4.1-8.6,4.1c-0.2,0-0.4,0-0.6,0c-1.6-3.4-5.1-5.8-9.1-5.9h-0.1
		c0-0.1-0.1-0.1-0.1-0.2c0,0,0,0,0,0c-0.4-0.7-0.7-1.5-0.9-2.4c-0.2-0.8-0.3-1.7-0.3-2.6c0-0.4,0-0.7,0.1-1c0.2-3,1.7-5.7,3.9-7.5
		c1.9-1.6,4.5-2.6,7.2-2.6c1.8,0,3.4,0.4,4.9,1.1c0.7,0.4,1.4,0.8,2,1.3c0,0,0.1,0,0.1,0.1c0.2,2.6,0.5,5.2,0.7,7.8
		C766.5,299.1,766.7,301.7,767.1,304.3z"/>
	<path class="st10" d="M758.9,312.9c0,0.9-0.1,1.9-0.4,2.7c-2.1,2.2-3.4,5.1-3.5,8.3c-1.9-5-6.7-8.5-12.3-8.5c-0.5,0-1,0-1.5,0.1
		c-0.2,0-0.4,0-0.7,0.1c-0.4,0-0.7,0.1-1,0.2c-0.2,0-0.4,0.1-0.6,0.1c0,0,0,0,0,0c-0.1,0-0.3,0.1-0.4,0.1c0-0.1-0.1-0.3-0.1-0.5
		c-0.1-0.5-0.2-1-0.3-1.6c0-0.4-0.1-0.7-0.1-1.1c0-0.9,0.1-1.8,0.4-2.6c0.4-1.5,1.1-2.9,2-4c1.9-2.3,4.8-3.8,8-3.8h0.2
		c4,0.1,7.5,2.5,9.1,5.9C758.6,309.8,758.9,311.3,758.9,312.9z"/>
	<path class="st26" d="M755.9,328.5c0,0.1,0,0.3,0,0.4c0,0.7-0.1,1.3-0.2,1.9c-0.7,0.2-1.5,0.4-2.2,0.5c-7.8,1.8-15.4,2.8-22.2,3
		c-0.1,0-0.2,0-0.3,0h0c-0.7-1.4-1.1-2.9-1.3-4.5c0-0.4-0.1-0.9-0.1-1.3c0-1.6,0.3-3.2,0.8-4.7c0.2-0.5,0.4-0.9,0.6-1.4
		c0.3-0.6,0.7-1.2,1.1-1.7c1.6-2.2,3.8-3.9,6.5-4.7c0.1,0,0.3-0.1,0.4-0.1c0,0,0,0,0,0c0.2-0.1,0.4-0.1,0.6-0.1
		c0.3-0.1,0.7-0.2,1-0.2c0.2,0,0.4-0.1,0.6-0.1c0,0,0.1,0,0.1,0c0.2,0,0.4-0.1,0.6-0.1c0.3,0,0.6,0,0.8,0c5.6,0,10.4,3.5,12.3,8.5
		C755.6,325.4,755.9,326.9,755.9,328.5z"/>
	<path class="st23" d="M748.7,302.6c0,0-0.1,0-0.1,0c-3.2,0-6.1,1.5-8,3.8l0-8.2c1.6-0.5,3.2-0.9,4.9-1.3c0.7-0.2,1.4-0.3,2-0.4
		c0,0.3-0.1,0.6-0.1,1C747.4,299.2,747.8,301,748.7,302.6z"/>
	<path class="st21" d="M743.9,290.4c2.5-0.6,5-1.1,7.4-1.5c-2.2,1.8-3.7,4.5-3.9,7.5c-0.7,0.1-1.4,0.3-2,0.4
		c-1.7,0.4-3.3,0.8-4.9,1.3l0-6.9C741.6,290.9,742.7,290.6,743.9,290.4z"/>
	<path class="st17" d="M740.5,303v3.3c-0.9,1.2-1.6,2.5-2,4l-1.1-1.8l-4.1-6.9l-0.6-1.1h0l-3-5.1v-0.9l0-11.4c0-2.6,1.9-4.8,4.3-5.3
		c0.4-0.1,0.7-0.1,1.1-0.1c1.5,0,2.8,0.6,3.8,1.6c1,1,1.6,2.3,1.6,3.8l0,8v1.3l0,5.5L740.5,303z"/>
	<path class="st18" d="M738.7,316.1c-2.6,0.9-4.9,2.6-6.5,4.7l-0.9-1.6l-1.4-2.5v0l-1-1.6l-1.2-2.1l0,0c-0.3-2.3-1.5-4.4-3.4-5.7
		l-1.5-2.6l-3.3-5.7l-1.2-2l-3.6-6.2c-1.5-2.6-0.6-5.9,2-7.4c0.8-0.5,1.8-0.7,2.7-0.7c1.9,0,3.7,0.9,4.7,2.7l5.4,9.2l0.4,0.7v0
		l3,5.1h0l0.6,1.1l4.1,6.9l1.1,1.8c-0.2,0.8-0.4,1.7-0.4,2.6C738.2,314,738.4,315.1,738.7,316.1z"/>
	<path class="st23" d="M729.8,316.8l2.4,4c-0.4,0.5-0.8,1.1-1.1,1.7c-1.5-1.5-3.5-2.3-5.8-2.3c-0.1,0-0.2,0-0.3,0
		c1.6-1.5,2.7-3.7,2.7-6.1c0-0.4,0-0.7-0.1-1.1L729.8,316.8L729.8,316.8z"/>
	<path class="st25" d="M729.8,329.9c0.2,1.6,0.6,3.1,1.3,4.5c-4.5,0.1-8.7-0.1-12.3-0.7c-0.3-0.4-0.6-0.8-0.8-1.2
		c1.1-0.9,1.9-2,2.3-3.3c0.4-0.9,0.6-1.9,0.6-2.9c0-1.3-0.3-2.6-0.9-3.7c0-0.1,0-0.1-0.1-0.2c1.4-1.2,3.2-2,5.2-2.1c0,0,0,0,0,0
		c0.1,0,0.2,0,0.3,0c2.3,0,4.3,0.9,5.8,2.3c-0.2,0.4-0.5,0.9-0.6,1.4c-0.5,1.5-0.8,3-0.8,4.7C729.7,329,729.7,329.4,729.8,329.9z"/>
	<path class="st24" d="M727.7,314.1c0,0.8-0.1,1.6-0.3,2.3c0,0,0,0,0,0c-0.4,1.5-1.2,2.8-2.3,3.8c0,0,0,0,0,0
		c-2,0.1-3.8,0.8-5.2,2.1c-1.4-2.7-4.2-4.5-7.4-4.5c-0.2,0-0.4,0-0.6,0c-0.2-0.4-0.4-0.8-0.5-1.3c-0.2-0.8-0.4-1.6-0.4-2.5
		c0-0.8,0.1-1.6,0.3-2.3c1-3.5,4.2-6.1,8-6.1c0.4,0,0.9,0,1.3,0.1c1.4,0.2,2.6,0.7,3.7,1.5c1.8,1.3,3.1,3.3,3.4,5.7l0,0
		C727.7,313.4,727.7,313.7,727.7,314.1z"/>
	<path class="st10" d="M720.8,326.1c0,2.5-1.1,4.8-2.9,6.3c-0.4,0.4-0.8,0.6-1.2,0.9c-3-0.6-5.6-1.5-7.6-2.7c-2.6-1.4-4.3-3.2-5-5.3
		c0,0,0,0,0,0c0.4-3.8,3.3-6.8,7.1-7.4c0.2,0,0.4,0,0.6-0.1c0.2,0,0.4,0,0.6,0c3.2,0,6,1.8,7.4,4.5c0.1,0,0.1,0.1,0.1,0.2
		C720.5,323.5,720.8,324.8,720.8,326.1z"/>
	<path class="st23" d="M711.3,311.8c-0.2,0.7-0.3,1.5-0.3,2.3c0,1.3,0.3,2.6,0.9,3.7c-4.1,0.3-7.3,3.5-7.7,7.5
		c0-0.2-0.1-0.3-0.1-0.5C703,320.7,705.8,316.2,711.3,311.8z"/>
	<path class="st23" d="M720.6,305.8c0,0,1.5-0.9,2.1-1.1l1.5,2.6C724.2,307.3,722.8,306.1,720.6,305.8z"/>
	<path class="st27" d="M798.2,314.9l-1.7,10.7v0l-3.1,19.2l0,0c-5.6,5.3-12.2,9.4-19.7,10.1l-2.5-1c3.7-7.7,6.3-16.1,7.3-24.2
		C787.1,325.5,794.2,320.4,798.2,314.9z"/>
	<path class="st28" d="M782,320.2L782,320.2c-0.6,0.5-1.3,0.8-1.9,1.2c-0.6-2.5-1.9-4.7-3.8-6.4c-1.5-1.3-3.2-2.3-5.2-2.8
		c-0.8-0.2-1.7-0.4-2.6-0.5l0-0.5c-0.1-1.7-0.8-3.6-1.2-5.3c-0.1-0.5-0.2-1.1-0.3-1.6c-0.4-2.6-0.6-5.2-0.9-7.9
		c-0.3-2.6-0.6-5.2-0.7-7.8c0-0.5-0.1-0.9-0.1-1.4c0-0.3,0-0.7,0-1c1.4,3.8,3.7,7,8.1,7.9c0,0,0.1,0,0.2,0c0.3,4.6,1.8,7.9,6.4,9.4
		c0.1,0,0.1,0,0.2,0.1c-0.2,3,1.6,5.7,4.1,7.3c0.4,0.2,0.7,0.5,1.1,0.7C784,314.4,782.5,317.3,782,320.2z"/>
	<path class="st28" d="M727.3,316.4c-0.4,1.5-1.2,2.8-2.3,3.8c0,0,0,0,0,0c-2,0.1-3.8,0.8-5.2,2.1c0.1,0,0.1,0.1,0.1,0.2
		c0.6,1.1,0.9,2.4,0.9,3.7c0,2.5-1.1,4.8-2.9,6.3c-0.4,0.4-0.8,0.6-1.2,0.9c-3-0.6-5.6-1.5-7.6-2.7c0.1-0.9,0.5-1.9,1-2.6
		c1.1-1.5,2.9-2,3.6-3.9c1.1-3.2-1.5-4.3-2.5-6.3c-0.2-0.3-0.3-0.7-0.4-1.1c0.2-0.1,0.4-0.1,0.5-0.2c3.3-1.2,5.6-0.2,9,0.4
		C722.2,317.2,725.3,317.3,727.3,316.4z"/>
	<path class="st28" d="M740.5,303.1c-0.1,0.2-0.1,0.6,0,1.2v2.1c-0.9,1.2-1.6,2.5-2,4c-0.2,0.8-0.4,1.7-0.4,2.6
		c0,1.1,0.2,2.2,0.5,3.2c-2.6,0.9-4.9,2.6-6.5,4.7l-0.9-1.6l-1.4-2.5v0l-1-1.6c0,0,0-0.1,0.1-0.1c0.6-1.1,0.3-3.1,0.7-4.4
		c0.6-1.8,1.4-3.5,2.1-5.3c0.6-1.5,1.1-2.7,1.7-3.7c0.8-1.3,1.8-2.5,3.2-3.8c1.6-1.5,2.9-3.3,3.9-5.2l0,5.5L740.5,303.1L740.5,303.1
		z"/>
	<path class="st28" d="M776.5,323.2c-5.7,2.8-12.5,5.4-19.9,7.3c-0.3-0.5-0.6-1.1-0.8-1.6c0,0.7-0.1,1.3-0.2,1.9
		c-0.7,0.2-1.5,0.4-2.2,0.5c-7.8,1.8-15.4,2.8-22.2,3c-0.1,0-0.2,0-0.3,0h0c-4.5,0.1-8.7-0.1-12.3-0.7c-0.3-0.4-0.6-0.8-0.8-1.2
		c1.1-0.9,1.9-2,2.3-3.3c2.9-0.8,6-1.1,8.6,0.3c0.3,0.1,0.6,0.3,0.9,0.5c1.7,0.9,4,2.1,5.6,0.9c1.9-1.3,1.7-3.4,4.3-4.1
		c2.5-0.6,4.9-0.1,6.7-2.5c1.4-1.9,1.1-3.9-0.6-5.5c-2-1.8-4.4-1.6-6.6-2.6c0,0-0.1,0-0.1-0.1c0,0,0,0,0,0c-0.2-0.1-0.4-0.2-0.5-0.4
		c-0.5-0.5-0.6-1-0.3-1.6c0.4-0.7,1.3-1.4,2.4-1.6c3.2-0.8,6.2,1.4,9.2-0.3c2.7-1.5,2.9-4.8,1.2-7.2c-0.5-0.7-1.4-1.5-2.2-2.4
		l-0.2-0.2c0,0,0,0,0,0c-0.9-1-1.5-1.9-0.9-2.4c0.3-0.2,0.8-0.4,1.6-0.4c3.8-0.2,8-0.3,11.3-2.4c2.8-1.8,4.1-5.3,4.8-8.6
		c0,0,0.1,0,0.1,0.1c0.2,2.6,0.5,5.2,0.7,7.8c0.3,2.6,0.5,5.2,0.9,7.9c-2,2.5-5.1,4.1-8.6,4.1c-0.2,0-0.4,0-0.6,0
		c0.7,1.4,1.1,2.9,1.1,4.5c0,0.9-0.1,1.9-0.4,2.7c0.9-1,2.1-1.9,3.3-2.5c-0.6,2.1-0.6,4.5,0.6,6.1c2.4,3.4,5.9,1,9.2,1.5
		C773.7,321,775.3,321.9,776.5,323.2z"/>
</g>
<g>
	<g>
		<path class="st29" d="M754.5,149.8c-3.1,0.3-6.1,0.6-9,1c-18.2,2.4-34,6.8-46.4,11.1c-9.7,3.4-17.4,6.9-22.6,9.4
			c0,0,9.6,2.6,24.6,2.3h0l2.3,13.4c-45.5,10-48.8-6.9-48.8-6.9s-5.5-16.9,45.1-31.3c2.1-0.6,4.3-1.2,6.6-1.8c0,0,18.9-5.7,39.2-8.6
			c19.1-2.7,39.5-2.9,46.2,6.6c1,1.3,1.4,3,1.2,4.6c-0.5,5.5-5.3,18.1-36.3,25.8c-0.4-2-1.7-3.7-3.5-4.6l0.6-9.7h0.1
			c7-3.3,14.1-7.4,21.2-12.5C767.9,148.9,761.1,149.2,754.5,149.8z"/>
		<path class="st30" d="M771.5,149.6c2,0.1,5.7-0.7,8.1-1c1.2-0.1,6.7-1.2,7.7-0.2c1.8,1.7-1.8,7.1-3,8.5c-1.3,1.5-3.2,2.4-4.9,3.5
			c-4,2.6-7.5,5.1-12.1,6.7c-15.8,5.6-32.1,10.1-48.7,12.5c-9.2,1.3-18.3,4-27.6,4.9c-7,0.7-15.4,1.1-21.6-2.6
			c-3.8-2.2-4.7-5.2-0.6-7.5c2.6-1.5,5.5-2.4,8.3-3.2c2.8-0.8,5.7-0.9,8.6-1.2c4.8-0.5,9.7-2.3,14.3-3.5c6.5-1.6,12.8-4,19.3-5.6
			c7.4-1.8,14.7-3.4,22-5.5c5-1.4,9.8-1.9,14.8-2.5c3.5-0.4,7.2-0.8,10.5-1.9C768.4,150.5,769.9,149.7,771.5,149.6z"/>
		<path class="st31" d="M754.5,149.8c6.6-0.6,13.5-0.9,20.6-0.9c-7.2,5.1-14.3,9.2-21.2,12.5h-0.1L754.5,149.8z"/>
		<path class="st30" d="M745.5,138.6c-20.3,2.8-39.2,8.6-39.2,8.6c-2.3,0.6-4.5,1.2-6.6,1.8c0,0-0.1-0.4-0.2-1.2
			c-0.4-4.1-0.5-17.7,16.3-23.8c1.3-0.5,2.7-0.8,4.1-1c3.2-0.5,8.7-0.8,13.9,1.2C739,126,743.8,130.1,745.5,138.6z"/>
		<path class="st31" d="M700.2,168.5l0.9,5.2h0c-15,0.2-24.6-2.3-24.6-2.3c5.2-2.6,12.9-6,22.6-9.4L700.2,168.5z"/>
		<path class="st28" d="M745.5,138.6c-20.3,2.8-39.2,8.6-39.2,8.6c-2.3,0.6-4.5,1.2-6.6,1.8c0,0-0.1-0.4-0.2-1.2
			c0.4-0.4,0.9-0.7,1.4-1c4.2-2.4,8.3-3.3,12.7-5c5.7-2.2,13.7-3.4,17.8-8.3c1.9-2.3,2.7-5.3,2.5-8.3c0-0.2-0.1-0.6-0.1-1
			C739,126,743.8,130.1,745.5,138.6z"/>
	</g>
	<g>
		<path class="st23" d="M754.5,149.8l-0.5,7l-0.3,4.6l-0.6,9.7c-0.5-0.3-1.1-0.5-1.7-0.6c-0.7-0.1-1.5-0.1-2.2,0.1l-2.9-14.8
			l-0.8-4.2l-0.1-0.7C748.4,150.4,751.4,150.1,754.5,149.8z"/>
		<g>
			<path class="st32" d="M751.9,220c0,0,1.3,20.1-21.9,23.1c-0.5,0.1-1,0.1-1.4,0.1c-3.5,0-15.8-1.3-17.2-18.2c0-0.7-0.1-1.3-0.1-2
				c20.2,3.2,27.9-15.8,28.9-18.5c0.4-0.3,0.7-0.7,1.1-1c2.5-2.4,5.8-4,8.2-6.6l2.3,21.8L751.9,220z"/>
			<path class="st33" d="M740.3,204.1c0,0,0,0.1-0.1,0.3c-1,2.7-8.8,21.7-28.9,18.5c0-0.8,0-1.5,0-2.3l0-11.4c0.7,0.5,1.4,1,2.2,1.4
				c0.2,0.1,0.4,0.2,0.6,0.3c0.2,0.1,0.5,0.2,0.8,0.3c0.5,0.2,1,0.4,1.6,0.5C728,214.9,739.7,204.7,740.3,204.1z"/>
			<path class="st32" d="M756.7,175.6c-0.4-2-1.7-3.7-3.5-4.6c-0.5-0.3-1.1-0.5-1.7-0.6c-0.7-0.1-1.5-0.1-2.2,0.1l-2.9-14.8
				l-0.8-4.2l-0.1-0.7c-11,1.5-21.1,3.6-30.1,6.1c-5.9,1.6-11.4,3.3-16.3,5.1l1.2,6.6l0.9,5.2l2.3,13.4l1.1,6.3
				c1.3-2.5,3.3-4.9,5.1-6.9c1.9-2.2,5.1-3.8,8.3-4.6c2-0.5,3.9-0.7,5.6-0.5c4,0.3,8.7,2.1,11.6,4.8c2.7,2.4,5.3,3.1,8.8,2.1
				c1.2-0.4,2.8-1.8,4.3-2.4l-0.4-3.2c0.8,0.3,1.6,0.5,2.5,0.5C754.3,183.1,757.4,179.7,756.7,175.6z M712.3,174.1
				c-1.5,0-2.7-1.2-2.7-2.7c0-0.6,0.2-1.1,0.5-1.5c0.5-0.7,1.4-1.2,2.3-1.2c1.5,0,2.7,1.2,2.7,2.7
				C715.1,172.9,713.8,174.1,712.3,174.1z M732.8,172.5c-1.5,0-2.7-1.2-2.7-2.7c0-1.5,1.2-2.7,2.7-2.7s2.8,1.2,2.8,2.7
				C735.6,171.2,734.3,172.5,732.8,172.5z"/>
		</g>
		<g>
			<path class="st34" d="M740.3,204.1c-0.6,0.6-12.3,10.8-23.9,7.6c-0.6-0.2-1.1-0.3-1.6-0.5c-0.2-0.1-0.5-0.2-0.8-0.3
				c-0.2-0.1-0.4-0.2-0.6-0.3c-0.8-0.4-1.5-0.9-2.2-1.4c-0.2-0.1-0.3-0.2-0.5-0.4c-0.3-0.2-0.5-0.4-0.8-0.7c-0.5-0.5-1-1-1.4-1.6
				c-0.2-0.2-0.4-0.5-0.6-0.8c0,0-0.1-0.1-0.1-0.1c-0.2-0.3-0.4-0.6-0.5-0.8c-0.7-1.2-1.2-2.4-1.5-3.8c-0.1-0.4-0.2-0.8-0.3-1.3
				l-1.1-6.2c1.3-2.5,3.3-4.9,5.1-6.9c1.9-2.2,5.1-3.8,8.4-4.6c1.9-0.5,3.9-0.7,5.6-0.6c4,0.3,8.7,2.1,11.6,4.8
				c2.7,2.4,5.3,3.1,8.8,2.1c1.2-0.4,2.8-1.8,4.3-2.4l1.2,11c-2.4,2.6-5.7,4.2-8.2,6.6c-0.4,0.3-0.7,0.7-1.1,1
				C740.3,204.3,740.3,204.2,740.3,204.1z"/>
			<path d="M732.8,167c1.5,0,2.7,1.2,2.7,2.7c0,1.5-1.2,2.7-2.7,2.7c-1.5,0-2.7-1.2-2.7-2.7C730.1,168.2,731.3,167,732.8,167z"/>
			<path d="M712.3,168.7c1.5,0,2.7,1.2,2.7,2.7c0,1.5-1.2,2.7-2.7,2.7c-1.5,0-2.7-1.2-2.7-2.7c0-0.6,0.2-1.1,0.5-1.6
				C710.6,169.1,711.4,168.7,712.3,168.7z"/>
			<path class="st35" d="M713.7,193.2c2.8,2.1,5.9,3,8.8,2.5c1.5-0.2,3-0.8,4.5-1.4l2.2-1.1c0.7-0.4,1.5-0.8,2.3-1.2
				c-0.5,0.7-1,1.4-1.6,2.1c-0.6,0.6-1.3,1.2-2,1.7c-1.5,1-3.1,1.8-5,2.1c-1.9,0.2-3.8,0-5.5-0.9
				C715.8,196.1,714.5,194.8,713.7,193.2z"/>
			<path class="st35" d="M719,170.5c0.3,3,0.3,6,0.2,9c-0.2,3-0.5,6-0.9,8.9l-0.9-1c2.3,0.2,4.5,0.4,6.8,0.9
				c-2.3,0.5-4.5,0.7-6.8,0.9c-0.5,0-0.9-0.3-0.9-0.8l0-0.1l0-0.1c0.1-3,0.3-6,0.7-8.9C717.6,176.3,718.1,173.4,719,170.5z"/>
			<path class="st23" d="M705.4,168.6c0.5-1.1,1.3-2,2.2-2.7c0.9-0.7,2.1-1.3,3.3-1.6c1.2-0.3,2.5-0.3,3.7,0c1.2,0.3,2.3,1,3.1,1.8
				c-1.2,0-2.3-0.2-3.3-0.1c-1,0.1-2,0.1-3,0.4C709.5,166.9,707.6,167.7,705.4,168.6z"/>
			<path class="st23" d="M725.7,165.5c1-1.1,2.2-1.9,3.5-2.5c1.3-0.6,2.7-1,4.2-1.2c1.5-0.2,3-0.1,4.4,0.3c1.4,0.4,2.8,1.2,3.7,2.2
				c-1.4-0.2-2.7-0.5-4-0.5c-1.3,0-2.6,0-3.9,0.2C731.1,164.3,728.6,164.9,725.7,165.5z"/>
			<path class="st36" d="M749,179.5c-0.3-1.4,0.2-2.8,1.1-3.9c0.9-1.1,2.2-1.8,3.6-1.9c-1.1,0.8-2,1.6-2.8,2.5
				C750.2,177.2,749.6,178.3,749,179.5z"/>
		</g>
		<path class="st37" d="M754.5,149.8l-0.5,7c-2.3-0.4-4.5-0.8-5.6-0.9c-0.7-0.1-1.4-0.1-2.1-0.2c-6.3-0.4-12.3-0.1-18.7,0.5
			c-4.1,0.4-8.2,0.3-12.3,0.6c9-2.5,19.1-4.6,30.1-6.1C748.4,150.4,751.4,150.1,754.5,149.8z"/>
	</g>
</g>
<g>
	<g>
		<path class="st38" d="M677.3,705.8l-6-28.8l-2.1-10c-1.5-7.2-7.9-12.4-15.3-12.4h-5.2l8.7-33.6c1.3,0,2.7,0,4-0.1l14.7,1.1
			l0.8,58.7L677.3,705.8z"/>
		<path class="st39" d="M669.2,667l8.1,38.8l-8.4,3.5c-13.9,5.8-29.6,5.3-43-1.6l-7-3.6l8.6-37.5c1.6-7.1,7.9-12.1,15.2-12.1h5.9
			h5.1C661.3,654.6,667.7,659.8,669.2,667z"/>
		<path class="st40" d="M657.5,621l-8.7,33.6l-8.6-30.9l-1.8-0.2c1.5-0.9,3-1.8,4.4-2.9h6.5C649.3,620.7,653,621,657.5,621z"/>
		<path class="st38" d="M648.8,654.6h-5.9c-1.1,0-2.2,0.1-3.3,0.4c-5.8,1.2-10.6,5.8-12,11.8l-8.6,37.4l0.9-66.7l0.1-7.1
			c5.7-1.2,12.2-3.3,18.3-6.8l1.8,0.2L648.8,654.6z"/>
		<path class="st40" d="M619,704.2c2-10.8,4.3-21.5,6.5-32.2c0.6-2.7,0.9-5.3,2-8.1c1.1-2.7,2.9-5.1,5.2-6.9c2.3-1.8,5.1-2.9,8-3.3
			c1.5-0.2,2.9-0.1,4.2-0.2l4.1,0l4.1,0c1.4,0,2.9,0.1,4.3,0.4c2.9,0.6,5.5,2.1,7.6,4.1c2.1,2,3.7,4.6,4.6,7.3
			c0.7,2.8,1.1,5.4,1.7,8.1l3.1,16.1c0.9,5.4,2,10.8,2.8,16.2c-1.4-5.3-2.6-10.6-3.9-16l-3.7-16c-0.6-2.6-1.2-5.4-1.8-7.9
			c-0.8-2.5-2.2-4.7-4.1-6.4c-1.9-1.7-4.2-3-6.7-3.5c-1.3-0.3-2.5-0.4-3.8-0.3l-4.1,0l-4.1,0c-1.4,0-2.7-0.1-4,0.1
			c-2.5,0.3-5,1.3-7,2.8c-2.1,1.5-3.7,3.6-4.7,6c-0.5,1.2-0.8,2.4-1.1,3.8l-1,4C624.6,683,621.9,693.6,619,704.2z"/>
		<path class="st41" d="M677,680.7c-1.9-1.2-3.8-2.5-5.7-3.7c-2.3-1.5-4.7-3-7.1-4.5c-8.6-5-16.8-11.1-24.6-17.6
			c-6-4.9-11.7-10.1-17.2-15.3c-0.6-0.6-1.5-1.3-2.5-2.1l0.1-7.1c5.7-1.2,12.2-3.3,18.3-6.8c1.5-0.9,3-1.8,4.4-2.9h6.5
			c0,0,3.7,0.3,8.2,0.3c1.3,0,2.7,0,4-0.1l14.7,1.1L677,680.7z"/>
	</g>
	<g>
		<path class="st42" d="M648.9,341c1.5,0,2.7,2.5,2.7,5.6c0,3.1-1.2,5.6-2.7,5.6l-0.3,0c-1.4-0.3-2.4-2.7-2.4-5.5
			C646.1,343.5,647.4,341,648.9,341z"/>
		<path class="st30" d="M649.3,620.7h-6.5l-0.3-4.3l-6.9-94.3l-7.9-107.5l-3.1-41.9l-0.5-6.8c0.4,1.4,1.7,2.4,3.2,2.4
			c0.1,0,0.3,0,0.4,0c1.7-0.2,2.9-1.7,2.8-3.4c0-0.6-0.1-1.2-0.1-1.8l0.4,0c3-0.4,4.7-2.8,5.5-5.5l0.1,1.4l1.1,21.4l1.3,25.4l1.1,23
			l2,39.9l2.6,52.5l4.6,93.6L649.3,620.7z"/>
		<path class="st30" d="M648.6,352.2l-1.8-0.2l-4.4-0.4l-5-0.5h0c0-2-0.1-3.4-0.1-3.4c0.4-3.6,1-5.8,1.5-7h0l6.1,0.2l1.6,0.1
			l2.4,0.1c-1.5,0-2.7,2.5-2.7,5.6C646.1,349.5,647.2,351.9,648.6,352.2z"/>
		<path class="st41" d="M636.4,358.9l1.1,21.4c-1-0.7-2.1-1.4-3.1-2.2c-3.1-2.1-6.4-3.7-9.6-5.5l-0.5-6.8c0.4,1.4,1.7,2.4,3.2,2.4
			c0.1,0,0.3,0,0.4,0c1.7-0.2,2.9-1.7,2.8-3.4c0-0.6-0.1-1.2-0.1-1.8l0.4,0c3-0.4,4.7-2.8,5.5-5.5L636.4,358.9z"/>
		<path class="st41" d="M643.3,344c-0.9,2.5-1.2,5.1-0.9,7.5l-5-0.5h0c0-2-0.1-3.4-0.1-3.4c0.4-3.6,1-5.8,1.5-7h0l6.1,0.2
			C644.3,341.9,643.6,342.9,643.3,344z"/>
	</g>
</g>
<g>
	<path class="st32" d="M670.7,298.1c-3.2,1.3-6.1,2.8-8.7,4.6c-9.5,6.3-15.3,15.1-18.4,21.1c-2,3.8-2.9,6.6-3,6.8c0,0,0,0,0,0
		l-0.2,0.3c2.7,2.2,5.1,5.5,6.1,10.1l-7.7-0.3h0c-0.5,1.2-1.2,3.4-1.5,7c0,0,0.1,1.4,0.1,3.4c0,1.9-0.2,4.3-0.9,6.5
		c-0.9,2.7-2.5,5-5.5,5.5l-0.4,0c0,0.6,0.1,1.2,0.1,1.8c0.1,1.7-1.1,3.2-2.8,3.4c-0.1,0-0.3,0-0.4,0c-1.4,0-2.8-0.9-3.2-2.4
		c-0.5-1.8-1.1-4.4-1.6-7.4c-3.2-0.7-5.1-3.2-6.1-6.3c-9.2-2.8-5.2-17.4-5.2-17.4c0-3,4.9-6.4,4.9-6.4l0.9-16
		c0.2-3.9,1.3-7.8,3.4-11.1c6.2-10.3,17.7-20,22.7-23.9c1.4-1.1,2.2-1.7,2.3-1.8c6.9,2.2,17.9,7.2,22.9,18.1
		C668.3,293.7,669.2,295.9,670.7,298.1z"/>
	<path class="st33" d="M637.3,351.1l9.5,0.9c-1,7.1-10.3,7-10.3,7l-0.1-1.4C637,355.4,637.2,352.9,637.3,351.1L637.3,351.1z"/>
	<path class="st36" d="M622.6,359.6c-0.5,0-1-0.4-1.1-0.9c-1.2-6.8-1.2-12.8-0.1-17.8c0.1-0.6,0.7-1,1.3-0.9c0.6,0.1,1,0.7,0.9,1.3
		c-1,4.7-1,10.4,0.2,17c0.1,0.6-0.3,1.2-0.9,1.3C622.7,359.6,622.6,359.6,622.6,359.6z"/>
	<path class="st36" d="M630.5,364.1c-0.6,0-1.1-0.5-1.1-1c-0.5-8.3-0.8-20.4-0.8-20.5c0-0.6,0.5-1.1,1.1-1.1c0,0,0,0,0,0
		c0.6,0,1.1,0.5,1.1,1.1c0,0.1,0.3,12.2,0.8,20.5C631.6,363.5,631.2,364.1,630.5,364.1C630.5,364.1,630.5,364.1,630.5,364.1z"/>
	<path class="st36" d="M616.5,353.3c-0.5,0-0.9-0.3-1-0.7c-2.1-6.1-1.2-14-1.2-14.3c0.1-0.6,0.6-1.1,1.2-1c0.6,0.1,1,0.6,1,1.2
		c0,0.1-0.8,7.7,1.1,13.3c0.2,0.6-0.1,1.2-0.7,1.4C616.7,353.3,616.6,353.3,616.5,353.3z"/>
	<path class="st33" d="M670.7,298.1c-3.2,1.3-6.1,2.8-8.7,4.6c-0.4-1.2-0.7-2.3-0.9-2.9c-1.5-3.7-3.1-7.6-5.5-10.9
		c-3.3-4.6-8.1-8.1-12.5-11.5c1.4-1.1,2.2-1.7,2.3-1.8c6.9,2.2,17.9,7.2,22.9,18.1C668.3,293.7,669.2,295.9,670.7,298.1z"/>
	<path class="st33" d="M643.6,323.8c-2,3.8-2.9,6.6-3,6.8c-5.2-2.7-10.9-4.4-16.8-5.2c3.1-1.9,7.8-3.9,12.1-3.6
		C638.6,322,641.4,322.3,643.6,323.8z"/>
	<path class="st36" d="M640.4,332c-0.3,0-0.5-0.1-0.7-0.3c-4.4-3.7-9.6-4.6-9.7-4.6c-0.6-0.1-1-0.7-0.9-1.3c0.1-0.6,0.7-1,1.3-0.9
		c0.2,0,5.9,0.9,10.8,5.1c0.5,0.4,0.5,1.1,0.1,1.6C641,331.8,640.7,332,640.4,332z"/>
	<path class="st36" d="M636.4,358.6c-0.1,0-0.2,0-0.3-0.1c-0.6-0.2-0.9-0.8-0.7-1.4c0.7-2.1,0.8-4.5,0.9-6.1c0-1.9-0.1-3.3-0.1-3.3
		c0-0.1,0-0.2,0-0.2c0.4-3.8,1.1-6,1.6-7.3c0.5-1.2,1-1.8,1.1-1.8c0.4-0.4,1.1-0.5,1.6,0c0.4,0.4,0.5,1.1,0.1,1.5
		c0,0-0.3,0.4-0.6,1.2c-0.4,1.1-1.1,3.1-1.5,6.6c0,0.4,0.1,1.7,0.1,3.5c0,1.8-0.2,4.4-1,6.8C637.3,358.3,636.8,358.6,636.4,358.6z"
		/>
</g>
<g>
	<path class="st32" d="M833.9,343.4c-1.7,2.9-4.4,5.8-7.7,8.7c-11.8,10.4-30.9,19.9-34.8,21.7c-0.5,0.2-0.9,0.5-1.4,0.6
		c-2.4,0.9-4.7,1.7-6.8,2.3c-33.8,11-33.8-1.4-33.8-1.4l0-0.1c-26.8-3.8-22.7-13.9-22.7-13.9c-0.9-0.6-1.4-1.7-1.4-2.7
		c0-0.2,0-0.5,0.1-0.8c0.1-0.2,0.2-0.5,0.3-0.7c0.8-1.4,2.4-2.1,4-1.6l11.9,3.9c4,1.5,7.4,2.2,10.3,2.5c6.2,0.6,9.5-1,9.5-1
		l-9.7-7.5c-0.9-0.7-1.4-1.8-1.4-2.9c0-0.8,0.3-1.6,0.8-2.3c1-1.2,2.7-1.7,4.2-1.1l18.5,7.6c7.5-0.6,14.1-4.8,19.7-10.1
		c3.1-3,5.9-6.3,8.3-9.5c2.6-3.5,4.7-6.9,6.2-9.7c2-3.6,3.2-6.1,3.2-6.1l0.1-0.2c1.4,0.5,3.2,1.7,3.8,3.1l0.2,0
		c-0.5,3.6-0.2,7.3,1.8,10.6c1.1,1.8,2.6,3.7,4.8,3.9c2.1,0.2,3.5-1.4,5.5-1.5C832.1,335.2,832.1,340.1,833.9,343.4z"/>
	<path class="st33" d="M833.9,343.4c-1.7,2.9-4.4,5.8-7.7,8.7c-0.3-0.4-0.5-0.7-0.8-1.1c-2.1-2.7-4.3-4.6-7.1-6.5
		c-2.3-1.6-4.3-3.8-6.9-5c-1.7-0.9-3.7-1.4-5.4-2.3c-1.4-0.7-2.9-1.3-4.3-1.9c2.6-3.5,4.7-6.9,6.2-9.7c2-3.6,3.2-6.1,3.2-6.1
		l0.1-0.2c1.4,0.5,3.2,1.7,3.8,3.1l0.2,0c-0.5,3.6-0.2,7.3,1.8,10.6c1.1,1.8,2.6,3.7,4.8,3.9c2.1,0.2,3.5-1.4,5.5-1.5
		C832.1,335.2,832.1,340.1,833.9,343.4z"/>
	<path class="st36" d="M747.1,369.7c-8.9,0-16.7-4.5-21-7.5c-0.5-0.4-0.6-1-0.3-1.5c0.4-0.5,1-0.6,1.5-0.3
		c3.8,2.7,13.8,8.7,24.1,6.6c0.6-0.1,1.2,0.3,1.3,0.9c0.1,0.6-0.3,1.2-0.9,1.3C750.3,369.6,748.7,369.7,747.1,369.7z"/>
	<path class="st36" d="M754.4,374.7c-1.7-0.2-3.3-0.4-4.8-0.5c-0.7-0.1-1.4-0.2-2.1-0.3c-6.8-1.1-11.9-2.7-15.4-4.8
		c-0.5-0.3-1.2-0.2-1.5,0.4c-0.3,0.5-0.2,1.2,0.4,1.5c3.7,2.3,9.1,4,16.2,5.1c0.7,0.1,1.4,0.2,2.1,0.3c1.5,0.2,3.1,0.4,4.8,0.6
		c0,0,0.1,0,0.1,0c0.6,0,1-0.4,1.1-1C755.4,375.3,755,374.8,754.4,374.7z"/>
</g>
<path class="st5" d="M513.2,712.9c0,7.9-37.5,14.3-83.7,14.3c-46.2,0-83.7-6.4-83.7-14.3c0-7.9,37.5-14.3,83.7-14.3
	C475.7,698.6,513.2,705,513.2,712.9z"/>
<g>
	<path class="st43" d="M554.1,433.5c0.7,1.2,0.2,2.8-1.1,3.3c-1,0.5-2.2,0.6-3.2-0.3c0,0-0.2-0.2-0.6-0.6c-0.8-0.8-2.1-2.3-2.1-3.8
		c0-0.8,0.4-1.5,1.4-2.1c0.4-0.2,2.8-0.4,4.9,2.3C553.6,432.7,553.9,433.1,554.1,433.5z"/>
	<path class="st43" d="M549.2,436c1,2.2-1.8,3.6-1.8,3.6c-0.8,0.6-2.3-0.2-3.6-1.2c-1.4-1-2.7-2.3-2.7-2.3c-2-1.7-2.8-3.1-2.9-4.3
		c-0.4-2.2,1.4-3.4,1.4-3.4c3.1-1.8,7.5,3.8,7.5,3.8C547.1,433.7,548.5,435.2,549.2,436z"/>
	<path class="st43" d="M543.8,438.4c0.7,1.2,0.2,2.1-0.6,2.8c-1.6,1.4-4.1,1.2-5.7-0.1c-0.4-0.3-0.8-0.7-1.2-1.1
		c-1.2-1.2-2.1-2.4-2.1-2.4c-2.2-2.5-2.9-4.4-2.9-5.8c0-2.1,1.6-2.9,1.6-2.9c2.6-1.5,5.1,2.9,5.1,2.9h0c0.2,1.2,1,2.6,2.9,4.3
		C541.1,436.1,542.4,437.3,543.8,438.4z"/>
	<path class="st43" d="M534.3,437.6c0,0,0.9,1.2,2.1,2.4c-3.9,3.9-7.7-3.9-7.7-3.9c-0.3-0.8-0.4-1.5-0.3-2c0.1-2.6,3.1-2.2,3.1-2.2
		C531.4,433.2,532.1,435,534.3,437.6z"/>
	<path class="st44" d="M549.8,437.7c-0.2,0-0.5-0.1-0.7-0.2c0,0-0.3-0.2-0.7-0.6c-1.1-1.1-2.4-2.8-2.4-4.6c0-0.6,0.5-1.1,1.1-1.1
		s1.1,0.5,1.1,1.1c0,0.8,0.7,1.9,1.8,3c0.3,0.3,0.5,0.5,0.5,0.5c0.5,0.4,0.5,1.1,0.1,1.6C550.5,437.5,550.1,437.7,549.8,437.7z"/>
	<path class="st44" d="M543.8,439.5c-0.2,0-0.5-0.1-0.7-0.2c-1.5-1.1-2.7-2.3-2.8-2.4c-1.9-1.6-3-3.3-3.3-4.9
		c-0.1-0.6,0.3-1.2,0.9-1.3c0.6-0.1,1.2,0.3,1.3,0.9c0.2,1.1,1.1,2.3,2.6,3.6c0.1,0.1,1.3,1.2,2.6,2.2c0.5,0.4,0.6,1.1,0.2,1.5
		C544.5,439.3,544.1,439.5,543.8,439.5z"/>
	<path class="st44" d="M536.4,441c-0.3,0-0.6-0.1-0.8-0.3c-1.2-1.2-2.1-2.4-2.2-2.5c-2-2.4-3.1-4.5-3.1-6.4c0-0.6,0.5-1.1,1.1-1.1
		c0.7,0,1.1,0.5,1.1,1.1c0,1.4,0.9,3.1,2.6,5.1c0.1,0.1,0.9,1.2,2,2.3c0.4,0.4,0.4,1.1,0,1.6C536.9,440.9,536.6,441,536.4,441z"/>
</g>
<g>
	<path class="st10" d="M460.5,621.3c-0.3,1-0.4,1.5-0.4,1.5h-25.5l1.4-10.8l4.7-34.7l2.5-18.6c0.3-2,0.1-4-0.6-5.8l-29.9-86.3
		l-0.4-1.3c-5.4,48.6-14.3,144.2-15.5,156.2c-0.1,0.8-0.1,1.2-0.1,1.2h-22.8c-0.9-2-1.7-4.6-2.4-7.6c-5.6-24.4-4.9-77.7-4.4-88.4
		c0.1-1.3,0-2.6-0.2-3.8c-5.1-29.6-7.8-54.9-9-76.3c-0.1-2.3-0.3-4.5-0.4-6.7c26.4-2.9,25-40.2,25-40.2v0c2.4,0.3,4.9,0.5,7.6,0.7
		c4.6,0.3,9.6,0.4,14.9,0.1c4.3-0.2,8.9-0.6,13.6-1.4V420l4.9,0.9l43.7,8C492.7,499.6,464.4,607.2,460.5,621.3z"/>
	<path class="st11" d="M435,288.8l1.7,10.1l-5,1c0-0.5-0.7-4-1.9-9.1c-3.8-17.2-12.2-52.3-12.2-52.3v0c2.3,0.2,5.5,0.6,9.2,1.4
		L435,288.8z"/>
	<path class="st11" d="M387.8,294.7l2.3,13.8l-5,1c0-0.6-1-5.4-2.5-12c-4.1-18.1-11.7-50.3-11.7-50.3c4.4-1.1,7.5-1.3,7.5-1.3
		s0.6,2.3,2.1,5.3L387.8,294.7z"/>
	<g>
		<path class="st10" d="M447.3,334.5c0,0.1-0.1,0.2-0.1,0.3C447.3,334.7,447.3,334.6,447.3,334.5L447.3,334.5z"/>
		<path class="st10" d="M446.8,319.2c-2-9.2-7.4-21.1-10.1-26.9h0c-1-2.2-1.7-3.5-1.7-3.5h0l1.7,10.1l-5,1c0-0.5-0.7-4-1.9-9.1
			c-16.4,9.5-42,3.9-42,3.9l2.3,13.8l-5,1c0-0.6-1-5.4-2.5-12l-3.6,20c5.9,14.7,17.5,34.2,39.9,48.5v-24.9l4.6-0.8h0
			c0-1.4,0.3-2.9,0.8-4.3c-2.3,1.1-5.1,1.6-8.5,1.5c0,0-25.8,2.5-22.5-28c0,0,24.6,6.4,41.1-2c0,0,1.2,8.4-0.9,16.3
			C437.8,320.9,442.7,319.7,446.8,319.2z M444.3,335.3c-0.1,0.4-0.2,0.8-0.3,1.2l2.9-0.5c0.1-0.4,0.1-0.7,0.2-1.1
			C446.8,336.2,444.3,335.3,444.3,335.3z M412.5,384.9l-26.8-11.3c-9.6-4.2-16.9-10.8-22.4-18.5c0,0-1.9,5.9-3.6,18.1
			c-0.5,3.3-0.9,7-1.3,11.2h0c0,0,25.8,11.9,60.2,5.9v-3L412.5,384.9z"/>
	</g>
	<g>
		<path class="st45" d="M418.6,390.4v8.9c-4.7,0.7-9.2,1.2-13.6,1.4c-5.3,0.3-10.3,0.2-14.9-0.1c-2.7-0.2-5.2-0.4-7.6-0.7
			c-15.2-1.8-24.9-5.6-24.9-5.6c0.2-3.5,0.5-6.7,0.7-9.7h0C358.4,384.5,384.3,396.4,418.6,390.4z"/>
		<path class="st45" d="M382.5,399.9c0,0,1.4,37.3-25,40.2c-0.8-18.4-0.6-33.6,0.2-45.9C357.7,394.2,367.3,398,382.5,399.9
			L382.5,399.9z"/>
		<path class="st9" d="M357.7,446.8c2.6-0.2,5.2-0.7,7.6-1.6c1.2-0.3,2.4-0.9,3.6-1.4c1.1-0.7,2.3-1.2,3.3-1.9
			c4.3-2.8,7.7-6.7,10.2-11.1l1.8-3.4c0.5-1.2,0.9-2.4,1.4-3.6l0.7-1.8l0.5-1.9c0.3-1.3,0.7-2.5,1-3.8c0.5-2.5,0.9-5.1,1.4-7.7
			c0.3-2.6,0.5-5.2,0.9-7.8c0.1,2.6,0.1,5.3,0.2,7.9c-0.2,2.6-0.4,5.3-0.8,7.9c-1,5.2-2.4,10.5-5.1,15.2c-2.7,4.7-6.5,8.8-11.3,11.5
			C368.4,446,362.9,447.3,357.7,446.8z"/>
		<path class="st9" d="M405,400.8c1.5,6.5,2.4,13,3,19.5c0.6,6.5,1.1,13.1,0.8,19.7c-1.5-6.5-2.4-13-3-19.5
			C405.2,414,404.8,407.4,405,400.8z"/>
		<path class="st9" d="M358.4,384.5c4.9,1.6,9.8,2.8,14.8,3.8c5,0.9,10,1.8,15,2.2c5,0.5,10.1,0.7,15.1,0.7
			c5.1,0.1,10.1-0.4,15.2-0.7c-2.5,0.6-5,1.2-7.5,1.6c-2.5,0.3-5.1,0.7-7.7,0.8c-5.1,0.4-10.3,0.2-15.4-0.2
			c-5.1-0.5-10.2-1.4-15.2-2.7c-2.5-0.7-4.9-1.4-7.4-2.3C363.1,386.7,360.7,385.7,358.4,384.5z"/>
		<path class="st9" d="M357.7,394.2c2.5,0.7,5,1.3,7.5,1.8c2.5,0.6,5,1,7.5,1.4c5,0.8,10.1,1.4,15.2,1.8c5.1,0.5,10.2,0.6,15.3,0.7
			c2.6,0,5.1-0.1,7.7-0.2c2.6-0.1,5.1-0.3,7.7-0.4c-2.5,0.6-5.1,1.1-7.6,1.5c-2.6,0.3-5.1,0.6-7.7,0.8c-5.2,0.4-10.4,0.3-15.5-0.1
			c-5.2-0.4-10.3-1.1-15.4-2.3C367.4,397.9,362.4,396.4,357.7,394.2z"/>
		<path class="st11" d="M446.6,565.7c-2,3.7-4.1,7.7-5.9,11.6l2.5-18.6c0.3-2,0.1-4-0.6-5.8l-29.9-86.3c-0.1-6.7,0.4-13.4,1.5-19.9
			c1.3-8.4,1.4-10.1,9.6-9.6c4.7-0.3,10.6,14,12.6,18.1c0.8,1.6,3.5,6,1.5,7.3c-1.1,0.7-5.5-2.2-6.9-2.3
			c1.3,10.4,7.1,22.3,10.3,32.6c3.7,11.9,7.9,24.3,9.7,36.6C453.1,542.7,453,554.2,446.6,565.7z"/>
		<path class="st9" d="M412.3,466.5c0,0-0.1,0-0.1,0c-0.6-0.1-1-0.6-1-1.2c1.6-14.7,2.7-23.4,3.4-26.8c0.1-0.6,0.7-1,1.3-0.9
			c0.6,0.1,1,0.7,0.9,1.3c-0.6,3.3-1.7,12-3.4,26.6C413.4,466.1,412.9,466.5,412.3,466.5z"/>
		<path class="st9" d="M412.3,438.7c4.2-1.5,8.5-2.4,12.8-3.1l-0.9,1.2c-0.4-2.6-0.6-5.3-0.7-7.9c-0.1-2.7-0.2-5.3,0-8
			c0.8,2.6,1.4,5.2,1.8,7.8c0.4,2.6,0.8,5.2,1.1,7.9l0,0c0.1,0.6-0.4,1.1-0.9,1.2c-2.2,0.3-4.4,0.6-6.5,0.8
			C416.8,438.7,414.5,438.8,412.3,438.7z"/>
		<g>
			<path class="st46" d="M460.5,621.3c-0.3,1-0.4,1.5-0.4,1.5h-25.5l1.4-10.8c4.1,0.9,9.1,3.8,12.8,5.2
				C452.7,618.9,456.6,619.9,460.5,621.3L460.5,621.3z"/>
			<path class="st46" d="M397,619.8c-0.1,0.8-0.3,3-0.3,3h-22.8c-0.9-2-1.7-4.6-2.4-7.6C376.7,616.8,393.7,619.2,397,619.8z"/>
		</g>
		<path class="st11" d="M412.5,384.9c-5,1.2-10.2,0.8-15.5,0.7c-8.7-0.1-16-2.9-24-5.8c-4.3-1.5-10-3.1-13.3-6.6
			c1.7-12.2,3.6-18.1,3.6-18.1c5.5,7.6,12.8,14.3,22.4,18.5L412.5,384.9z"/>
		<g>
			<path class="st45" d="M434.3,307.5c0,0,1.2,8.4-0.9,16.3c-3.7,2.4-6.9,6-9,11.4c-0.1,0.3-0.2,0.6-0.3,0.9c-2.3,1-5.1,1.6-8.5,1.5
				c0,0-25.8,2.5-22.5-28C393.2,309.5,417.8,315.9,434.3,307.5z"/>
			<g>
				<path class="st9" d="M395.2,313.1c1.5,0.3,3,0.6,4.6,0.8c1.5,0.3,3.1,0.5,4.6,0.7c3.1,0.4,6.2,0.6,9.3,0.7
					c3.1,0.1,6.2-0.1,9.3-0.4c1.5-0.2,3.1-0.4,4.6-0.7c1.5-0.2,3-0.7,4.5-1.1c-2.9,1.1-5.9,1.9-9,2.4c-3.1,0.4-6.2,0.6-9.4,0.5
					c-3.1-0.1-6.2-0.4-9.3-0.9C401.2,314.7,398.1,314.1,395.2,313.1z"/>
			</g>
		</g>
	</g>
</g>
<g>
	<path class="st47" d="M469.2,314.3c-4.2,0.2-9,1.5-13.2,5c0,0-2.5-0.4-6.2-0.3c-0.9,0-1.9,0.1-3,0.2c-2-9.2-7.4-21.1-10.1-26.9
		l16.4-3.9l8.2-2c0,0,6.1,18.9,7.8,27.6L469.2,314.3z"/>
	<path class="st43" d="M453.2,288.4c-0.2,0.9-0.3,1.7-0.4,2.4c-1.1,5.6-2.1,11.1-2.8,16.8c-0.5,3.8-0.3,7.6-0.1,11.4
		c-0.9,0-1.9,0.1-3,0.2c-2-9.2-7.4-21.1-10.1-26.9L453.2,288.4z"/>
</g>
<g>
	<path class="st47" d="M492,417.8c-0.4,0.6-0.9,1-1.5,1.3l-1.9,0c-0.2,0-0.4-0.1-0.6-0.2l-16.5-9.9c0.2,0.5,2.7,6.9,6.9,10.3
		c1.3,1,2.7,1.8,4.2,2c1,0.1,1.5,1.2,0.8,2c-0.9,1.1-2.3,2.2-4.8,2.4c-2.2,0.2-4.3-0.4-6.2-1.6c-3,2.1-5.9,1.5-8.3-0.2h0
		c-4.9,2.5-9.2,0-12.8-4.3c-4-4.8-7-11.8-8.9-16.8c-1.2-3.3-1.9-5.7-2-6v0c0,0,0,0,0,0l-15.7-6.6l-6.1-2.6v0l-32.9-13.8
		c-9.6-4.2-16.9-10.8-22.4-18.5c-14.5-19.9-17.1-46-17.4-49.7c0-0.2,0-0.4,0-0.4l27.2-8.4c0,0,0.4,3.7,2.1,9.6
		c0.9,3.2,2.1,7,3.8,11.2c5.9,14.7,17.5,34.2,39.9,48.5c3.7,2.4,7.8,4.7,12.2,6.7c7,3.3,14.9,6.2,23.7,8.3c0,0,17.6-2.7,27.7,5.1
		c1.1,0.8,1.5,2.3,0.9,3.5c-0.5,1.1-1.5,1.8-2.7,1.8c-0.2,0-0.5,0-0.7-0.1l-8.8-2.2c-2.1-0.6-3.9,1.8-2.6,3.7c1.4,2.1,3.7,5,6.6,8.1
		c4.2,4.5,9.7,9.3,15.8,12.7C492.4,414.5,492.9,416.4,492,417.8z"/>
	<path class="st44" d="M472.5,425.1c-0.2,0-0.4-0.1-0.6-0.2c-0.9-0.6-1.8-1.4-2.4-2.2c-1.6-1.9-4.5-5.5-6.3-8.6
		c-0.3-0.5-0.1-1.2,0.4-1.5c0.5-0.3,1.2-0.1,1.5,0.4c1.6,2.9,4.5,6.4,6,8.2c0.6,0.7,1.2,1.3,2,1.8c0.5,0.3,0.6,1,0.3,1.5
		C473.2,424.9,472.8,425.1,472.5,425.1z"/>
	<path class="st44" d="M464.2,424.9c-0.2,0-0.4-0.1-0.6-0.2c-4.5-3.1-7.4-9.3-7.5-9.6c-0.3-0.6,0-1.2,0.5-1.5c0.6-0.3,1.2,0,1.5,0.5
		c0,0.1,2.8,5.9,6.7,8.7c0.5,0.3,0.6,1,0.3,1.5C464.9,424.7,464.5,424.9,464.2,424.9z"/>
	<path class="st43" d="M442.3,392c-0.2,1.3-0.8,2.3-1.3,3.5c-0.2,0.4-0.3,0.7-0.4,1.1c0,0,0,0,0,0l-15.7-6.6
		c3.9-0.2,7.9-0.3,11.9-0.7C439.7,389.1,442.8,388.4,442.3,392z"/>
	<path class="st43" d="M375.1,306.2c-0.3,0-0.7-0.1-1-0.1c-7.1-0.6-13.9,0.3-21,0.3c-0.9,0-5.1,0-7.2-0.9c0-0.2,0-0.4,0-0.4
		l27.2-8.4C373,296.6,373.5,300.3,375.1,306.2z"/>
</g>
<g>
	<g>
		<path class="st48" d="M483,707.2c3.6,5.4-0.8,8.7-5.6,10.6c-5,1.9-10.5,2.3-15.8,1.6c-20.3-3.1-25.9-17.6-25.9-17.6
			c-2.4-1.4-5.4-3.3-8-5.1c-3.3-2.3-6-4.2-6-4.2c-1.5-3.2,1.1-6.2,1.1-6.2c0.4,1.9,1.6,3.5,3.3,4.5c3,1.7,6.8,3.5,9.4,4.8
			c1.7,0.8,3.1,2,4,3.6c3.5,6.1,13.2,12.6,13.2,12.6c10.8,4,21,2,26.8,0.1C481.7,711.1,482.9,709.1,483,707.2z"/>
		<path class="st49" d="M483,707.1c0,2-1.3,3.9-3.4,4.6c-5.8,1.9-16,3.9-26.8-0.1c0,0-9.7-6.5-13.3-12.6c-0.9-1.6-2.3-2.8-4-3.6
			c-0.3-0.1-0.6-0.3-1-0.5c-2.5-1.2-5.8-2.8-8.4-4.3c-1.8-1-2.9-2.7-3.3-4.5c-0.3-1.1-0.3-2.2,0-3.3c1.8-7.2,5.3-22.8,6.9-41.4
			c0.5-6,0.8-12.2,0.8-18.7h34.2l-9.5,35.9c-1.4,5.3-0.9,10.9,1.4,15.9l9.4,20.3l0,0.4c4.9,0.7,12.2,2.9,16.3,9.3
			C482.7,705.3,483,706.3,483,707.1z"/>
		<path d="M465.9,696.4c-0.1,0-0.1,0-0.2,0c-2.7-0.4-4.7-0.3-4.7-0.3c-0.5,0-1.1-0.5-1.1-1.1c0-0.6,0.5-1.1,1.1-1.1
			c0.1,0,2.2-0.1,5.1,0.4c0.6,0.1,1,0.7,0.9,1.3C466.9,696,466.5,696.4,465.9,696.4z"/>
		<path class="st50" d="M436.3,692.5c-0.4,1.2-1,2-1.7,2.6c-2.5-1.2-5.8-2.8-8.4-4.3c-1.8-1-2.9-2.7-3.3-4.5c-0.3-1.1-0.3-2.2,0-3.3
			c1.8-7.2,5.3-22.8,6.9-41.4c1.6,2.8,3,6.4,3.9,9c1.6,4.2,1.7,8.1,1.3,12.4c-0.5,5.9-2.9,11.9-2.6,17.7
			C432.5,684.8,437.6,688.4,436.3,692.5z"/>
	</g>
	<g>
		<path class="st48" d="M426.9,707.7c3.1,7.7-6.1,7.8-9.1,7.6c-0.6,0-1.1-0.1-1.7-0.2c-9.5-2.3-15.7-0.6-15.7-0.6
			c-6.3,1.5-10.6,1.8-13.3,1.7c-3.9-0.1-6.5-3.8-5.4-7.5c0.3-0.9,0.5-1.5,0.5-1.5c3.4,6.4,14.2,2.9,14.2,2.9c1.4-0.3,3-0.5,4.7-0.7
			c5.6-0.6,11.3-0.3,17,0.5c2.9,0.4,5.1,0,6.6-0.5c0.9-0.3,1.6-1,2-1.8L426.9,707.7z"/>
		<path class="st49" d="M426.7,707.6c-0.4,0.8-1.1,1.5-2,1.8c-1.5,0.6-3.7,0.9-6.6,0.5c-5.6-0.8-11.3-1.2-17-0.5
			c-1.7,0.2-3.3,0.4-4.7,0.7c0,0-10.8,3.5-14.2-2.9c-0.4-0.7-0.7-1.6-0.9-2.6c0,0-0.8-8.7-2-22.4c-0.1-1.2-0.3-2.3-0.5-3.5
			l-11.4-55.9h36.2c0,0,1.3,19.3,4.3,38.5c2,12.9,4.8,25.9,8.5,32.9l-0.1,0.6c0.1,0,0.2,0.1,0.4,0.1c1.9,0.5,3.7,1.3,5.4,2.6
			c1.9,1.4,3.6,3.5,4.9,6.3C427.4,705.1,427.3,706.5,426.7,707.6z"/>
		<path class="st50" d="M416.6,695c-2.9,0.1-5.4-1.4-8.7-0.6c-2.7,0.7-5.2,2-6.8-1.1c-1.1-2.2-0.3-6.3,0-8.7c0.7-4.7,3-8.8,4.3-13.4
			c0.7-2.6,1.8-6.2,2.5-9.8c2,12.9,4.8,25.9,8.5,32.9l-0.1,0.6C416.3,694.9,416.4,694.9,416.6,695z"/>
		<path d="M402.3,697.2c-0.4,0-0.9-0.3-1-0.7c-0.2-0.6,0.1-1.2,0.6-1.4c0.3-0.1,7.4-2.9,14.6-1.2c0.6,0.1,1,0.7,0.8,1.3
			c-0.1,0.6-0.7,1-1.3,0.8c-6.5-1.5-13.2,1.1-13.3,1.1C402.6,697.2,402.4,697.2,402.3,697.2z"/>
	</g>
</g>
<g>
	<g>
		<path class="st10" d="M419,185.5c1.4-29.3-21-26.2-24.6-25.8c-0.3,0-0.6,0.1-0.9,0.2c-36.7,9.3-23.4,38.8-22.2,41.4
			c0.1,0.1,0.1,0.2,0.1,0.2c-1.5,0-2.8,0.5-3.9,1.3c-22.2-46.8,29.4-50.3,29.4-50.3c33.9-2.1,22.6,36.2,22.6,36.2
			c-0.2-1-0.4-1.9-0.6-2.9C418.9,185.7,418.9,185.6,419,185.5z"/>
		<g>
			<path class="st51" d="M455.5,195c-1.1,2.4-2.5,4.2-2.8,6.9c-0.1,1.1-0.2,2.2-0.4,3.3l-0.1,0.6c-0.5,2.2-1.3,4.3-3.3,5.9
				c-3,2.3-6.8,2.3-9.8,4.3c-0.1,0.1-0.2,0.1-0.3,0.2l-0.4,0.3c-1.9,1.6-3.1,3.9-5.1,5.4c-4.2,3-11.8,1-14.5-3.3
				c0.1-0.4,0.2-0.7,0.3-1.1c1.5-6.2,2.9-16.5,0.5-29c0,0,10.4-35.4-18.9-36.3c-0.3,0-0.5,0-0.8,0c-0.9,0-1.9,0-2.9,0.1
				c0,0-0.3,0-0.9,0.1c-0.2,0-0.4,0-0.7,0.1c-8.5,1.1-47.6,8.3-27.8,50.1c-1.5,1.2-2.4,3-2.4,5c0,3.5,2.8,6.3,6.3,6.3
				c0.9,0,1.7-0.2,2.5-0.5l2.4,17.6l-0.1,0c-2.4,1.3-5.3,2-8,1.8c-0.4,0-0.7-0.1-1.1-0.1c-0.3,0-0.6-0.1-0.8-0.2
				c-1.5-0.4-3-1.1-4.2-2.2c-1.6-1.6-2.2-4-3.8-5.5c-4-4-9.5,0.9-13.7-2.8c-0.6-0.6-1.3-1.2-1.9-2c-0.1-0.2-0.3-0.4-0.4-0.5
				c-1-1.4-1.7-3-1.7-4.5c0-3,1.5-5.9,0.5-8.9c-1.3-3.8-4.8-6.2-6-10.2c-1.6-4.9-0.8-9.5,1.3-14.1c1-2.2,2.5-4,4.1-5.6
				c0.3-0.3,0.5-0.6,0.8-0.8l0,0c2.9-2.8,5.9-5.5,6.8-9.9c1.3-7.1,3.4-13.7,10.4-17c4.7-2.3,10.3-0.8,14.6-3.9
				c5-3.6,9.4-4.9,15.5-3.4c3.6,0.9,7,2.2,9.8,4.5c3.1-2.2,6.8-5,10.7-5.3c4.1-0.3,6.4,3.3,10.1,4.1c2.1,0.5,4-0.1,6.1-0.4
				c0.3,0,0.6-0.1,0.8-0.1c0.3,0,0.6,0,0.9,0c2.9,0,5.9,1.1,8.3,2.6c3.7,2.2,6.2,4.8,7.3,8.9c0.7,2.6,0.4,5.2,1.8,7.6
				c1.7,3.1,5.1,4.6,6.6,7.8c1.4,3.1,0.8,5.2,0.9,8.3C452,185,458.2,188.8,455.5,195z"/>
			<path class="st51" d="M394.4,159.7c3.6-0.4,26-3.6,24.6,25.8c-1.5-0.5-2.4-1.6-3.1-3.3c-1.3-3.2-1-5.5-4.3-7.3
				c-2.6-1.4-3.3-5.2-6.7-5.4c-1.5-0.1-2.4,0.5-3.9-0.1c-1.6-0.7-1.8-1.6-2.9-2.9c-1-1.1-1.5-1-2.8,0c-1.5,1.2-2.4,2.5-4.2,3.3
				c-1.5,0.6-2.9,0.3-4.3,0.9c-1.7,0.7-2.1,2.1-3.2,3.5c-1.9,2.3-4.8,2.2-6,5.2c-1.1,2.8-1.1,5.5-3,8c-1.6,2.2-2.8,3.2-2.5,6.1
				c0.2,1.4,0.4,3,0.3,4.4c-0.1,0.8-1,3.1-0.9,3.3l-0.2,0.1c-1.2-2.6-14.6-32,22.2-41.4C393.8,159.8,394.1,159.7,394.4,159.7z"/>
			<path class="st52" d="M390,148.9c2.4,0.8,4.1,2.1,6,3.6c-0.2,0-0.4,0-0.7,0.1c-1.7-1.3-3.3-2.5-5.5-3.2c-5.8-2-9.9-1.1-13.5,2.7
				c-1.6,1.8-2.2,1.8-3.9,2.1c-0.3,0.1-0.6,0.1-1,0.2c-5.6,0.9-8.9,4.1-11.5,10.8l-0.2,0.5c-0.8,2.2-1.1,2.8-2.9,4.5
				c-4.3,3.8-5.3,11.9-3.6,17.1c0.2,0.6,0.6,1.3,1.1,2.1c0.6,1.1,1.3,2.2,1.3,3.2c0.1,0.7-0.2,1.3-0.4,1.8c-0.1,0.2-0.2,0.5-0.4,0.8
				c-1.7,4.9-0.1,12.5,3.3,16.4c0.5,0.6,1.2,1.1,2,1.7c1.3,1,2.6,2,3.1,3.2c0.3,0.8,0.1,1.7-0.1,2.5c-0.1,0.4-0.2,0.7-0.2,1
				c-0.5,5,1,9.5,4.2,12.9c-0.3,0-0.6-0.1-0.8-0.2c-3-3.4-4.4-7.9-3.9-12.8c0-0.3,0.1-0.7,0.2-1.1c0.2-0.8,0.4-1.6,0.1-2.2
				c-0.5-1.1-1.7-2.1-2.9-3c-0.8-0.6-1.5-1.2-2.1-1.8c-3.6-4.1-5.1-11.8-3.4-16.9c0.1-0.3,0.2-0.6,0.4-0.9c0.3-0.5,0.5-0.9,0.4-1.5
				c-0.1-0.9-0.7-1.9-1.3-2.9c-0.5-0.8-0.9-1.5-1.1-2.2c-1.8-5.3-0.6-13.7,3.8-17.6c1.8-1.6,1.9-2,2.8-4.2l0.2-0.5
				c1.8-4.8,4.7-9.9,11.9-11.1c0.4-0.1,0.7-0.1,1.1-0.2c1.7-0.2,2.1-0.3,3.6-1.9C379.6,147.8,384.1,146.9,390,148.9z"/>
			<path class="st52" d="M438.8,216.3l-0.4,0.3c-1.2-3.2-3.6-6-6.1-7.1c-0.1,0-0.2-0.2-0.1-0.3c0.2-1.2,0.4-2.3,0.6-3.4
				c0.6-2.9,1.2-5.6,0.5-8.7c-0.6-2.9-2-5.7-3.8-7.8c-0.2-0.2-0.4-0.4-0.6-0.6c-0.5-0.5-1-0.9-1.1-1.7c-0.2-1.4,0.6-3.2,1.3-5
				c0.4-1.1,0.8-2.1,1-2.8c0.7-3.8,0.5-7.8-0.8-11.2c-1.1-2.8-3.5-9.3-7.2-9.7c-0.1,0-0.2-0.1-0.2-0.2c0-0.6,0-1.2,0.1-1.8
				c0.1-1.3,0.2-2.5-0.4-3.8c-1.8-3.4-6.1-3.9-9.6-3.9h-0.2c-4.1,0-7.8,1.3-10.9,3.7c-0.3,0-0.5,0-0.8,0c3.3-2.8,7.3-4.2,11.7-4.2
				h0.2c3.7,0,8.1,0.6,10,4.2c0.7,1.4,0.6,2.7,0.5,4c0,0.5-0.1,1-0.1,1.5c3.9,0.7,6.3,7.2,7.4,10c1.3,3.5,1.6,7.6,0.8,11.5
				c-0.2,0.8-0.6,1.8-1,2.9c-0.7,1.6-1.4,3.5-1.3,4.7c0.1,0.6,0.5,1,1,1.4c0.2,0.2,0.5,0.4,0.7,0.7c1.9,2.1,3.3,5,3.9,8
				c0.7,3.2,0.1,6-0.5,8.9c-0.2,1-0.4,2.1-0.6,3.1C435.2,210.3,437.5,213,438.8,216.3z"/>
			<path class="st52" d="M452.4,205.3l-0.1,0.6c-0.2-0.2-0.5-0.5-0.7-0.7c-0.2-0.1-0.3-0.3-0.5-0.5c-1-1-2.3-2.2-3.6-1.7
				c-0.1,0-0.1,0-0.2,0c-0.1,0-0.1-0.1-0.1-0.2c-0.4-1.1-0.3-2.3-0.3-3.6c0-0.4,0-0.8,0-1.3c0-4-1.6-7.7-4.5-10.4
				c-0.5-0.5-0.9-0.7-1.3-0.9c-0.7-0.4-1.2-0.7-1.4-2.1c-0.2-1.1,0.1-2.4,0.3-3.6c0.2-0.8,0.3-1.5,0.3-2.2c0.1-2.1-0.1-4.1-0.7-6.3
				c-1.1-4.3-2.7-7-5.5-9.6c-0.1-0.1-0.3-0.2-0.4-0.3c-0.7-0.6-0.8-0.7-0.6-1.6c0-0.3,0.1-0.7,0.2-1.3c0.3-3.3-0.6-6.8-2.6-10.5
				c-1.3-2.4-2.8-4-4.8-5.2c0.3,0,0.6,0,0.9,0c1.7,1.2,3.1,2.7,4.3,5c2,3.8,2.9,7.4,2.6,10.8c-0.1,0.6-0.1,1-0.2,1.3
				c-0.1,0.7-0.1,0.7,0.5,1.2c0.1,0.1,0.2,0.2,0.4,0.3c2.9,2.6,4.6,5.4,5.7,9.8c0.6,2.2,0.8,4.3,0.7,6.4c0,0.7-0.2,1.5-0.3,2.3
				c-0.2,1.2-0.5,2.4-0.3,3.5c0.2,1.1,0.5,1.3,1.2,1.7c0.4,0.2,0.8,0.5,1.4,1c3,2.8,4.6,6.6,4.6,10.7c0,0.4,0,0.8,0,1.3
				c0,1.1-0.1,2.2,0.1,3.1c1.5-0.4,2.9,0.9,3.9,1.9c0.2,0.2,0.4,0.3,0.5,0.5C452.1,205,452.2,205.1,452.4,205.3z"/>
			<path class="st52" d="M347.9,210.2c0,1-1.1,2-1.9,2.9c-0.5,0.5-0.9,0.9-1.1,1.3c-1.1,1.6-1.8,3.5-2.2,5.6
				c-0.1-0.2-0.3-0.4-0.4-0.5c0.4-2,1.2-3.8,2.2-5.4c0.3-0.4,0.7-0.9,1.2-1.4c0.8-0.8,1.8-1.8,1.8-2.6c0-0.4-0.4-1-0.7-1.5
				c-0.2-0.2-0.3-0.5-0.4-0.7c-1-2.1-1.7-3.9-2.1-5.7c-0.5-2.1-0.1-3.6,0.2-5.3c0.1-0.6,0.2-1.1,0.3-1.7c0.1-0.9,0.1-1.3-0.2-2.1
				c-0.2-0.5-0.6-1-0.9-1.5c-0.3-0.4-0.6-0.8-0.8-1.2c-0.9-1.7-1.7-3.9-2.5-6.6c-0.7-2.6-0.7-5,0.1-7.6c0.3-0.3,0.5-0.6,0.8-0.8
				c-1.1,2.8-1.2,5.5-0.4,8.3c0.8,2.7,1.6,4.8,2.4,6.5c0.2,0.4,0.5,0.7,0.8,1.2c0.4,0.5,0.8,1.1,1,1.6c0.4,0.9,0.4,1.4,0.2,2.4
				c-0.1,0.6-0.2,1.2-0.3,1.7c-0.4,1.7-0.7,3.1-0.2,5.1c0.4,1.8,1,3.5,2,5.6c0.1,0.2,0.2,0.4,0.4,0.6
				C347.5,209,347.9,209.6,347.9,210.2z"/>
		</g>
	</g>
	<g>
		<g>
			<path class="st47" d="M371.4,201.4c0,0,0-0.1-0.1-0.2l0.2-0.1c-0.2-0.2,0.8-2.5,0.9-3.3c0.2-1.4-0.1-3-0.3-4.4
				c-0.3-2.8,0.9-3.9,2.5-6.1c1.9-2.5,1.9-5.2,3-8c1.2-3,4.1-2.9,6-5.2c1-1.3,1.5-2.8,3.2-3.5c1.4-0.6,2.9-0.2,4.3-0.9
				c1.8-0.8,2.7-2,4.2-3.3c1.2-1,1.8-1.1,2.8,0c1.1,1.2,1.3,2.2,2.9,2.9c1.4,0.6,2.4,0,3.9,0.1c3.3,0.2,4.1,4,6.7,5.4
				c3.3,1.8,3,4.1,4.3,7.3c0.7,1.7,1.6,2.7,3.1,3.3c0,0.1,0,0.2,0,0.3c0.2,1,0.4,1.9,0.6,2.9c2.4,12.5,1,22.8-0.5,29
				c-0.1,0.4-0.2,0.7-0.3,1.1c-1.2,3.8-3.7,7.1-7.1,9.1c-1.1,0.6-2.3,1.2-3.6,1.5c-9.4,2.5-18-3.2-18-3.2s10.7,16.7,23.6,12.3
				c5.3,18.9-10.5,23.6-10.5,23.6c-13.2,1.9-19.7-5.5-22.7-10.9c-1.6-2.9-2.1-5.3-2.1-5.3l-2-14.7l-2.4-17.5
				c-0.8,0.3-1.6,0.5-2.5,0.5c-3.5,0-6.3-2.8-6.3-6.3c0-2,1-3.8,2.4-5C368.6,201.9,370,201.4,371.4,201.4z M411.7,193.5
				c0-1.5-1.2-2.7-2.7-2.7c-1.5,0-2.7,1.2-2.7,2.7c0,1.5,1.2,2.7,2.7,2.7C410.5,196.2,411.7,195,411.7,193.5z M389.6,194.8
				c0-1.5-1.2-2.7-2.7-2.7c-1.5,0-2.7,1.2-2.7,2.7c0,1.5,1.2,2.7,2.7,2.7C388.3,197.5,389.6,196.3,389.6,194.8z"/>
			<path class="st43" d="M411.8,228l1.9,10.4c-12.9,4.4-23.6-12.3-23.6-12.3s8.6,5.8,18,3.2c1.3-0.4,2.5-0.9,3.6-1.5L411.8,228z"/>
		</g>
		<g>
			<path d="M408.9,190.8c1.5,0,2.7,1.2,2.7,2.7c0,1.5-1.2,2.7-2.7,2.7c-1.5,0-2.7-1.2-2.7-2.7C406.2,192,407.4,190.8,408.9,190.8z"
				/>
			<circle cx="386.8" cy="194.8" r="2.7"/>
			<path class="st44" d="M390,213c3.5,1.5,6.9,2.4,10.3,2.1c1.7-0.1,3.4-0.5,5-1.2c0.8-0.3,1.6-0.8,2.4-1.1c0.8-0.4,1.5-0.9,2.4-1.4
				c-1,1.6-2.4,3-4,4c-1.6,1.1-3.6,1.7-5.6,1.8c-2,0.1-4-0.2-5.8-1C392.9,215.5,391.2,214.4,390,213z"/>
			<path class="st51" d="M402.9,186.4c0.3-0.5,0.7-0.9,1.2-1.2c0.5-0.3,1-0.5,1.5-0.7c1-0.4,2.1-0.5,3.2-0.6c2.2,0,4.4,0.7,6,2.2
				c-2.2,0.1-4.1-0.1-6,0c-1,0-1.9,0-2.9,0l-1.5,0C403.9,186.3,403.4,186.3,402.9,186.4z"/>
			<path class="st43" d="M396.3,206c1.9-0.6,3.9-1,5.9-1.3l-0.7,0.8c-0.3-2-0.6-4-0.7-5.9c-0.1-2-0.2-4,0-6c0.7,1.9,1.1,3.9,1.5,5.9
				c0.3,2,0.6,4,0.7,5.9l0,0.1c0,0.4-0.3,0.7-0.7,0.8l0,0C400.3,206.2,398.3,206.2,396.3,206z"/>
			<path class="st51" d="M377.9,190.3c0.6-1.1,1.6-1.9,2.6-2.6c1-0.7,2.2-1.1,3.4-1.4c1.2-0.3,2.5-0.3,3.7-0.1
				c1.2,0.2,2.4,0.7,3.4,1.4c-1.3,0.1-2.4,0.1-3.5,0.3c-1.1,0.1-2.2,0.3-3.2,0.5C382.3,189,380.3,189.6,377.9,190.3z"/>
			<path class="st44" d="M368,205.5c1.4-0.2,2.8,0.4,3.8,1.3c1,1,1.7,2.3,1.7,3.7c-0.8-1.1-1.5-2.1-2.4-2.9
				C370.3,206.8,369.3,206.1,368,205.5z"/>
			<path class="st53" d="M389.5,202c0.2,1.2-1.6,2.4-4,2.7c-2.4,0.3-4.4-0.3-4.6-1.5c-0.2-1.2,1.6-2.4,4-2.7
				C387.3,200.1,389.4,200.8,389.5,202z"/>
			<path class="st53" d="M418,199.5c0.1,1.2-1.8,2.3-4.1,2.5c-2.4,0.2-4.4-0.6-4.5-1.8c-0.1-1.2,1.8-2.3,4.1-2.5
				C415.9,197.5,417.9,198.3,418,199.5z"/>
		</g>
	</g>
</g>
<g>
	<polygon class="st54" points="584.4,409.3 584.4,430.5 520,418.7 520,398.3 	"/>
	<polygon class="st55" points="584.4,393 584.4,409.3 520,398.3 520,382.7 	"/>
	<polygon class="st54" points="584.4,377.1 584.4,393 520,382.7 520,364.1 	"/>
	<polygon class="st55" points="584.4,359.4 584.4,377.1 520,364.1 520,342.5 	"/>
	<polygon class="st54" points="584.4,345.4 584.4,359.4 520,342.5 520,322.5 524.5,324.1 546.4,331.9 568,339.6 568,339.6 	"/>
	<path class="st56" d="M584.4,430.5l-31,2c-2-2.7-4.5-2.5-4.9-2.3c-1,0.6-1.4,1.4-1.4,2.1c0,0-4.3-5.6-7.5-3.8c0,0-1.8,1.2-1.4,3.4
		h0c0,0-2.5-4.5-5.1-2.9c0,0-1.7,0.8-1.6,2.9c0,0-3-0.4-3.1,2.2h0l-24.6,1.6l-36.5-6.7l-43.7-8l-4.9-0.9l32.6-0.4l0.2-0.1
		c3.6,4.3,7.9,6.8,12.8,4.3h0c2.4,1.7,5.2,2.3,8.3,0.2c1.8,1.2,4,1.8,6.2,1.6c2.4-0.2,3.9-1.4,4.8-2.4c0.6-0.8,0.1-1.8-0.8-2
		c-1.6-0.2-3-1-4.2-2l10.2-0.1c0.3,0.1,0.6,0.2,0.9,0.2c0.4,0,0.7-0.1,1-0.2l29.6-0.4L584.4,430.5z"/>
	<path class="st10" d="M572.3,335.7c-0.2,0.3-0.4,0.5-0.6,0.8c-0.8,1.1-2.1,2.2-3.7,3.1h0l-21.6-7.7c0.5-0.5,0.9-1,1.3-1.4
		c0.5-0.6,0.9-1.3,1.3-1.9c1.4-2.4,1.9-4.9,1.9-7.2c0,0,0.2-0.2,0.4-0.4c6.9-7,19-3.9,21.7,5.5C573.8,329.4,574,332.8,572.3,335.7z"
		/>
	<path class="st26" d="M550.9,321.3c0.1,2.3-0.4,4.8-1.9,7.2c-0.4,0.6-0.8,1.3-1.3,1.9c-0.4,0.5-0.8,1-1.3,1.4l-21.9-7.7
		c0.1-1,0.2-2,0.3-3c0-0.1,0-0.2,0-0.3c0.2-2.5,0.3-4.8,0.4-6.9c0,0,6.4-8.6,15.4-6.5c4.2,1,7.5,4.2,9.1,8.3
		C550.3,317.3,550.8,319.3,550.9,321.3z"/>
	<path class="st22" d="M525.2,313.9c-0.1,2.2-0.2,4.5-0.4,6.9c0,0.1,0,0.2,0,0.3c-0.1,1-0.2,2-0.3,3l-4.6-1.6l-18.4,3.4
		c0,0-0.5-5.1-0.5-11.9c0-2,0-4.2,0.1-6.5c0-0.5,0-1.1,0.1-1.6c0.7-11.9,3.4-24.9,11.8-25.8C513.1,280.1,526.6,276.2,525.2,313.9z"
		/>
	<path class="st2" d="M520,398.3v20.4l-23.1,0.3l-6.4,0.1c0.6-0.2,1.2-0.7,1.5-1.3c0.9-1.4,0.4-3.4-1.1-4.2
		c-6.1-3.5-11.7-8.3-15.8-12.7l18.9-1.1L520,398.3z"/>
	<path class="st21" d="M520,382.7v15.6l-26,1.5l-18.9,1.1c-2.9-3.1-5.2-5.9-6.6-8.1c-1.2-1.9,0.5-4.2,2.6-3.7l8.8,2.2
		c0.2,0.1,0.5,0.1,0.7,0.1c1.1,0,2.2-0.7,2.7-1.8c0.5-1.2,0.1-2.7-0.9-3.5l3.9-0.4L520,382.7z"/>
	<path class="st2" d="M520,364.1v18.7l-33.7,3.1l-3.9,0.4c-10.1-7.8-27.7-5.1-27.7-5.1c-8.8-2.2-16.7-5-23.7-8.3l32.7-3.2L520,364.1
		z"/>
	<path class="st21" d="M520,342.5v21.6l-56.3,5.5l-32.7,3.2c-4.4-2.1-8.4-4.3-12.2-6.7v-9.5l26.7-3.7l0.3,0c0.6,4.6,2,11.2,5.6,10.4
		c0,0,1.5-3.7,2.1-11.5h0L466,350L520,342.5z"/>
	<path class="st2" d="M520,322.5v20l-54,7.5l-12.4,1.7h0c0.1-1.9,0.2-3.9,0.2-6.3c0,0,9.3,7.1,10.4-9c0,0,0,0,0,0c0-0.1,0-0.3,0-0.4
		c0,0,8.5,6.7,13.7-5.7c0,0,0.1-0.1,0.1-0.1l14.4-2.6l9.2-1.7L520,322.5z"/>
	<path class="st24" d="M501.6,325.9l-9.2,1.7c-0.2-0.2-0.4-0.4-0.7-0.6c-0.6-0.5-1.1-1-1.6-1.5c-0.6-0.5-1.2-1.1-1.8-1.6
		c-3.4-3.2-6.2-6.1-8.6-8.7c-16.6-18.6-10.3-25.8-8.9-27c0,0,0,0,0.1,0c0,0,0,0,0.1-0.1c1.1-1.1,12.4-9.1,29,17.4
		c0.4,0.6,0.7,1.2,1.1,1.9h0.1c-0.1,2.2-0.1,4.5-0.1,6.5C501.1,320.8,501.6,325.9,501.6,325.9z"/>
	<path class="st17" d="M492.4,327.6l-14.4,2.6c0.8-1.7,2-3.1,3.7-3.9c2.4-1.2,5.8-2.3,8.4-0.8C490.9,326.2,491.6,326.9,492.4,327.6z
		"/>
	<path class="st47" d="M488.5,419.1l1.9,0c-0.3,0.1-0.7,0.2-1,0.2C489.1,419.3,488.8,419.2,488.5,419.1z"/>
	<path class="st2" d="M488.5,419.1l-10.2,0.1c-4.2-3.4-6.8-9.7-6.9-10.3l16.5,9.9C488.1,419,488.3,419.1,488.5,419.1z"/>
	<path class="st2" d="M451.4,419.5l-0.2,0.1l-32.6,0.4v-15.9l23.9-1.4C444.3,407.7,447.4,414.7,451.4,419.5z"/>
	<path class="st2" d="M445.4,348.8c0,0,0.1,1.8,0.4,4l-0.3,0l-26.7,3.7v-15.4l4.6-0.8h0c-0.1,1.5,0.1,3,0.6,4.4c1,3,3.2,5.2,8.1-0.8
		c0,0,7.9,8.2,12-7.4l2.9-0.5h0C446.1,339.6,445.6,343.9,445.4,348.8z"/>
	<path class="st21" d="M442.5,402.7l-23.9,1.4v-16.7l21.9,9.2C440.5,396.6,441.2,399.2,442.5,402.7z"/>
	<path class="st18" d="M478,330.2c0,0,0,0.1-0.1,0.2c-5.3,12.4-13.8,5.7-13.8,5.7c-1,16.6-10.5,9.4-10.5,9.4c0,2.3-0.1,4.4-0.2,6.2
		c-0.6,7.8-2.1,11.5-2.1,11.5c-3.6,0.8-5-5.8-5.6-10.4c-0.3-2.3-0.4-4-0.4-4c0.2-4.9,0.7-9.1,1.5-12.8c0.1-0.4,0.2-0.8,0.2-1.1l0,0
		c1.9-7.6,5.1-12.4,8.8-15.6c4.2-3.5,9-4.8,13.2-5c5.7-0.3,10.3,1.2,10.3,1.2l0.3-0.3c2.8,3.1,6.2,6.5,10.4,10.3
		c-2.6-1.5-6-0.4-8.4,0.8C480.1,327.2,478.8,328.5,478,330.2z"/>
	<path class="st17" d="M446.9,319.2c5.2-0.6,9.2,0.1,9.2,0.1c-3.7,3.1-6.9,8-8.8,15.6l0,0c-0.4,1.3-2.9,0.4-2.9,0.4
		c-0.1,0.4-0.2,0.8-0.3,1.2c-4,15.6-11.9,7.4-11.9,7.4c-4.9,6-7.1,3.9-8.1,0.8c-0.5-1.4-0.7-2.9-0.6-4.4c0-1.4,0.3-2.9,0.8-4.3
		c0.1-0.3,0.2-0.6,0.3-0.9c2-5.3,5.3-9,9-11.4C437.8,320.9,442.7,319.7,446.9,319.2z"/>
	<path class="st57" d="M440.5,396.6l-21.9-9.2V420l32.6-0.4l0.2-0.1c-4-4.8-7-11.8-8.9-16.8C441.2,399.2,440.5,396.6,440.5,396.6z
		 M471.4,409c0.2,0.5,2.7,6.9,6.9,10.3l10.2-0.1c-0.2,0-0.4-0.1-0.6-0.2L471.4,409z M490.4,419.1l6.4-0.1
		c0.1-6.1-29.1-78.5-32.3-82.1c-0.1-0.1-0.2-0.3-0.4-0.4c-1.1,16.1-10.4,9-10.4,9c0,2.3-0.1,4.4-0.2,6.3c-0.6,7.8-2.1,11.5-2.1,11.5
		c-3.6,0.8-5-5.8-5.6-10.4c-0.3-2.3-0.4-4-0.4-4c0.1-4.9,0.7-9.2,1.5-12.8h0l-2.9,0.5c-4,15.6-12,7.4-12,7.4c-4.8,6-7.1,3.9-8.1,0.8
		c-0.5-1.4-0.7-2.9-0.6-4.4h0l-4.6,0.8V366c3.7,2.4,7.8,4.7,12.2,6.7c7,3.3,14.9,6.2,23.7,8.3c0,0,17.6-2.7,27.7,5.1
		c1.1,0.8,1.5,2.3,0.9,3.5c-0.5,1.1-1.5,1.8-2.7,1.8c-0.2,0-0.5,0-0.7-0.1l-8.8-2.2c-2.1-0.6-3.9,1.8-2.6,3.7c1.4,2.1,3.7,5,6.6,8.1
		c4.2,4.5,9.7,9.3,15.8,12.7c1.5,0.8,2,2.8,1.1,4.2C491.6,418.4,491,418.9,490.4,419.1z"/>
	<path class="st28" d="M571.7,336.5c-0.8,1.1-2.1,2.2-3.7,3.1h0l-21.6-7.7l-21.9-7.7l-4.6-1.6l-18.4,3.4l-9.2,1.7
		c-0.2-0.2-0.4-0.4-0.7-0.6c0.1-4.6,2.3-10.1,3.5-14c0.9-2.9,2.1-5.9,4.7-7.4c0.4-0.2,0.8-0.4,1.2-0.6c0,0.3,0.1,0.6,0.1,0.9
		c0.7,2.4,3.5,6.2,4.9,7.9c2.7,3.5,6.8,5.4,11.1,6.2c2.6,0.5,5.2,0.9,7.5,0.7c0.3,0,0.6-0.1,0.9-0.1c4.1-0.6,8.6-0.5,12.2,2.1
		c1.5,1.1,3.2,2.5,4.6,3.8c1,0.9,1.6,2.7,2.7,3.5c1.2,0.9,1.3,0.7,2.5,0.4c0.2-0.1,0.5-0.1,0.8-0.2c2.2-0.5,4.5-0.7,6.6-1.2
		c5.7-1,11.5,0.2,15.2,5.1C570.9,335,571.4,335.7,571.7,336.5z"/>
</g>
<path class="st58" d="M417.6,238.5L417.6,238.5c-2.5-0.2-4-0.1-4-0.1c5.3,18.9-10.5,23.6-10.5,23.6c-13.2,1.9-19.7-5.5-22.7-10.9
	l7.3,43.6c0,0,25.6,5.6,42-3.9C426,273.6,417.6,238.5,417.6,238.5z M380.2,287.4c-4.1-17.9-9.4-40.3-9.4-40.3
	c-14.9,3.6-45.6,16.3-27.6,58.7l2.6-0.8l27.2-8.4c0,0,0,0.4,0.1,1c0.4,2.6,1.8,10.2,5.7,19.8l3.6-20
	C381.9,294.4,381.1,291,380.2,287.4z M426.8,239.9l5.2,31.4c0,0,0,0,0,0l2.9,17.5h0c0,0,0.7,1.3,1.7,3.5h0l9.6-2.3l15.1-3.6l2.7-0.6
	C460.7,253.6,440.6,243.2,426.8,239.9z"/>
<path class="st13" d="M388.8,282.1c7.4,1.3,13.2-0.8,19.1-5.4c5.2-4.1,8.4-10.2,13.1-14.2c0,8.9-8.7,18-15.5,22.9
	C397.8,290.9,394.3,286.6,388.8,282.1z"/>
<path class="st13" d="M446.3,290l-9.6,2.3h0c-1-2.2-1.7-3.5-1.7-3.5h0l-2.9-17.5c0.2,0.6,0.5,1.1,0.8,1.7c1.6,3.2,4,5.6,6.2,8.3
	C441.5,284.1,444.1,287,446.3,290z"/>
<path class="st13" d="M382.5,297.4l-3.6,20c-3.9-9.6-5.3-17.2-5.7-19.8c0.4-0.7,0.9-1.3,1.5-2c1.8-2,4.2-5,5.5-8.2
	C381.1,291,381.9,294.4,382.5,297.4z"/>
<path class="st59" d="M373,297.8c-0.5,0-0.9-0.3-1.1-0.8l-8.7-34.4c-0.2-0.6,0.2-1.2,0.8-1.3c0.6-0.2,1.2,0.2,1.3,0.8l8.7,34.4
	c0.2,0.6-0.2,1.2-0.8,1.3C373.2,297.7,373.1,297.8,373,297.8z"/>
</svg>
